<svg width="46" height="46" viewBox="0 0 46 46" fill="none" xmlns="http://www.w3.org/2000/svg">
<circle cx="22.9424" cy="23" r="22.1729" fill="#EEEDED"/>
<path d="M23.1448 31.4325C24.3101 31.4325 24.7894 32.0605 25.414 32.2C26.0386 32.3399 26.563 32.3783 27.0998 32.142C28.1635 31.6732 28.8116 31.1152 29.5982 30.2816C31.0563 28.7362 31.7729 26.6123 31.7729 23.7674C31.7729 20.9225 31.006 19.4519 29.8235 18.4903C28.6414 17.5287 27.9559 17.3447 26.5265 17.5287C25.0971 17.7128 24.3187 19.2486 23.1486 19.2486C21.979 19.2486 20.553 17.7344 19.3129 17.5287C18.0724 17.3226 17.3927 17.5287 16.319 18.4903C15.2452 19.4519 14.5166 20.9493 14.5166 23.7679C14.5166 26.5854 15.2606 28.6744 16.7182 30.2198C17.5044 31.0534 18.1261 31.6736 19.1893 32.142C19.7261 32.3788 20.2817 32.3404 20.8842 32.2004C21.4872 32.0614 21.9666 31.4335 23.1448 31.4335V31.4325Z" stroke="black" stroke-width="1.3"/>
<path d="M23.1486 19.2486C23.5249 15.5414 25.1235 13.6873 27.9435 13.6873C28.2023 14.4677 28.2689 15.2226 28.1438 15.9527C28.0844 16.2997 27.9003 16.7944 27.5912 17.4367" stroke="black" stroke-width="1.3" stroke-linecap="round"/>
<path d="M18.4616 24.2328C18.3288 24.878 18.3288 25.5419 18.4616 26.2254C18.5939 26.9085 18.8762 27.4358 19.3081 27.8072" stroke="black" stroke-width="1.3" stroke-linecap="round"/>
</svg>
