<svg width="702" height="397" viewBox="0 0 702 397" fill="none" xmlns="http://www.w3.org/2000/svg">
<path d="M0 38C0 17.0132 17.0132 0 38 0H702V73.8462H0V38Z" fill="#D3E8D7"/>
<rect y="206.769" width="702" height="73.8462" fill="#FEF8E0"/>
<rect y="103.385" width="702" height="73.8462" fill="#E9EEF8"/>
<path d="M0 310.154H702V384H38C17.0132 384 0 366.987 0 346V310.154Z" fill="#FCDCE9"/>
<path d="M85.8972 325.865C83.7788 325.325 81.8492 324.685 80.0927 323.953C78.7114 323.379 77.4371 322.747 76.2609 322.064C72.2635 319.743 69.4064 316.828 67.3764 313.508C62.9234 306.223 62.4519 296.99 62.6639 287.808C62.2912 303.968 64.0468 320.282 85.8932 325.852C85.894 325.857 85.8956 325.86 85.8972 325.865V325.865ZM86.8159 324.367C85.6364 321.085 84.6546 319.285 84.6254 319.233L83.4313 319.899C83.4556 319.944 84.2066 321.32 85.173 323.853C83.8858 321.582 81.0391 318.336 75.2967 313.726C59.1808 300.788 63.9098 275.176 63.9098 275.176L63.7623 275.092C63.5842 275.173 63.2759 275.898 63.0136 279.486C63.2949 275.64 63.6288 275.083 63.7984 275.083C63.8677 275.083 63.9098 275.176 63.9098 275.176C78.4873 280.971 83.855 296.927 85.7847 309.446C86.0009 310.85 86.1743 312.21 86.312 313.508C86.7908 318.004 86.8475 321.752 86.8216 323.953C86.8199 324.098 86.8175 324.236 86.8159 324.367V324.367ZM62.6646 287.776C62.6646 287.773 62.6646 287.769 62.6649 287.765C62.6646 287.769 62.6646 287.773 62.6646 287.776Z" fill="url(#paint0_linear_55:4)"/>
<path d="M90.8988 348.682H89.533C89.503 339.399 87.8448 331.97 86.2643 326.985C86.1411 326.597 86.0188 326.223 85.8973 325.865C85.8957 325.86 85.8941 325.857 85.8932 325.852C85.9305 325.862 85.9694 325.871 86.0067 325.881C85.8795 325.312 85.6202 324.641 85.1731 323.853C84.2066 321.32 83.4557 319.944 83.4314 319.899L84.6254 319.233C84.6546 319.285 85.6364 321.085 86.8159 324.367C87.0987 325.155 87.3935 326.03 87.6892 326.985C89.2657 332.082 90.8656 339.503 90.8988 348.682" fill="url(#paint1_linear_55:4)"/>
<path d="M62.6639 287.808C62.6639 287.798 62.6642 287.787 62.6645 287.776C62.6642 287.787 62.6639 287.798 62.6639 287.808ZM62.6648 287.765C62.7518 284.014 62.8765 281.36 63.0136 279.486C62.8765 281.36 62.7518 284.015 62.6648 287.765Z" fill="url(#paint2_linear_55:4)"/>
<path d="M78.4409 337.498C78.4352 337.498 78.428 337.487 78.4184 337.468C78.4295 337.469 78.4416 337.469 78.4523 337.469C78.4501 337.488 78.4463 337.498 78.4409 337.498ZM78.4184 337.468C64.744 336.671 59.6752 332.617 53.6483 327.171C52.5749 326.201 51.4705 325.187 50.2825 324.138C48.502 322.569 46.5321 320.923 44.1907 319.237C56.2586 327.926 58.475 335.546 75.7107 337.251C70.2992 335.5 60.1534 329.834 51.6182 321.024C46.6416 315.887 41.7066 314.681 38.1698 314.681C35.0385 314.681 33.0032 315.625 33.0032 315.625C36.3698 312.094 40.949 310.623 45.7995 310.623C48.7459 310.623 51.793 311.166 54.7286 312.12C56.0573 312.552 57.3636 313.068 58.6275 313.656C61.6742 315.074 64.4744 316.91 66.7553 318.994C67.3505 319.472 67.9167 319.964 68.4546 320.466C69.7226 321.651 70.8352 322.89 71.8118 324.138C72.6048 325.153 73.3073 326.172 73.929 327.171C77.1783 332.391 78.2232 337.053 78.4184 337.468Z" fill="url(#paint3_linear_55:4)"/>
<path d="M86.8556 348.682H88.4871C80.4749 335.89 71.1816 330.896 70.7399 330.664L70.1038 331.876C70.2067 331.929 79.0981 336.722 86.8556 348.682" fill="url(#paint4_linear_55:4)"/>
<path d="M94.0524 320.073C94.0524 320.073 84.6002 278.933 106.916 265C106.916 265 104.652 265.958 106.811 279.068C109.75 296.915 114.643 311.084 94.0524 320.073Z" fill="url(#paint5_linear_55:4)"/>
<path d="M96.8416 348.682C91.3224 328.332 96.1165 313.797 96.1668 313.648L94.8722 313.206C94.8204 313.358 89.9477 328.089 95.4288 348.682H96.8416Z" fill="url(#paint6_linear_55:4)"/>
<path d="M93.684 318.243C94.008 318.061 95.2523 316.431 95.1203 302.074C94.9907 287.926 103.756 270.783 106.253 266.19C106.478 265.412 106.739 265.13 106.855 265.04C87.4276 277.245 92.174 310.13 93.684 318.243" fill="url(#paint7_linear_55:4)"/>
<path d="M106.855 265.04L106.916 265L106.855 265.04Z" fill="url(#paint8_linear_55:4)"/>
<path d="M103.497 335.471C103.767 336.09 102.353 324.57 109.362 314.322C115.449 304.09 129.96 295.13 140.805 301.272C140.963 301.312 136.478 301.728 131.109 307.995C121.58 320.454 122.176 328.618 103.497 335.471" fill="url(#paint9_linear_55:4)"/>
<path d="M98.7202 348.682C102.706 335.07 109.784 327.952 109.866 327.87L108.906 326.895C108.555 327.24 101.305 334.51 97.2847 348.682H98.7202Z" fill="url(#paint10_linear_55:4)"/>
<path d="M109.362 314.322C103.963 322.215 103.562 330.857 103.539 334.132C103.573 334.238 103.595 334.307 103.595 334.307C103.595 334.307 104.048 332.188 111.917 315.844C119.786 299.502 140.805 301.272 140.805 301.272C129.96 295.13 115.449 304.09 109.362 314.322" fill="url(#paint11_linear_55:4)"/>
<path d="M111.85 345.187H70.9471C69.9219 345.187 69.1473 346.117 69.3321 347.124L75.2957 379.744C75.7448 382.199 77.8836 383.982 80.3791 383.982H102.418C104.913 383.982 107.052 382.199 107.501 379.744L113.465 347.124C113.649 346.117 112.875 345.187 111.85 345.187" fill="url(#paint12_linear_55:4)"/>
<path d="M500.943 349.96C500.943 349.96 500.21 361.698 499.109 369.767C507.179 371.234 508.646 371.234 508.646 371.234L515.247 350.695L500.943 349.96" fill="#EC8963"/>
<path d="M514.147 355.096L500.21 359.497L500.699 352.406L514.147 355.096Z" fill="#D66E4F"/>
<path d="M522.506 376.063H498.873C498.873 376.063 498.229 365.429 499.303 364.999C502.096 368.436 507.252 370.369 510.475 365.858C510.475 365.858 522.076 371.552 524.44 372.196C526.803 372.841 527.018 375.848 527.018 375.848L522.506 376.063Z" fill="#226D34"/>
<path d="M526.451 373.915C526.946 374.874 527.018 375.848 527.018 375.848L522.506 376.063H498.873C498.873 376.063 498.82 375.18 498.77 373.915H526.451Z" fill="#B5B5B4"/>
<path d="M525.97 290.687C523.986 287.075 521.65 283.645 519.247 280.286C517.289 277.541 495.808 248.243 495.808 248.243L479.304 245.064L474.902 282.108L504.844 307.418C504.844 307.418 502.169 316.117 501.234 328.188C501.014 331.017 500.829 335.412 500.683 340.097C500.55 344.395 500.82 353.103 500.793 354.461L514.147 355.096C514.493 353.924 514.897 352.526 515.348 350.96C517.22 344.513 519.386 338.162 521.895 328.822C525.466 315.522 528.685 302.369 528.685 298.111C528.685 296.486 528.087 294.835 527.337 293.282C526.906 292.376 526.415 291.502 525.97 290.687" fill="#1C1B1B"/>
<path d="M528.685 298.111C528.685 298.111 520.016 299.346 516.348 313.65C512.681 327.955 509.013 354.362 509.013 354.362L514.147 355.096C514.147 355.096 527.819 311.179 528.685 298.111" fill="#393137"/>
<path d="M403.15 364.625C403.15 364.625 391.296 371.325 390.007 372.356C388.719 373.387 387.688 375.449 388.976 376.737C409.849 376.737 413.545 375.706 413.545 375.706C413.545 375.706 414.834 370.81 414.834 366.43L403.15 364.625Z" fill="#226D34"/>
<path d="M413.585 376.458C413.585 376.458 409.849 376.737 388.977 376.737C388.2 375.96 388.269 374.903 388.727 373.958H413.946C413.723 375.03 413.585 376.458 413.585 376.458Z" fill="#B5B5B4"/>
<path d="M423.827 354.209L413.42 367.705C413.42 367.705 407.641 369.661 403.7 365.748L412.589 348.154L423.827 354.209Z" fill="#EC8963"/>
<path d="M412.589 348.154L423.827 354.209L417.568 362.326L410.522 352.288L410.507 352.275L412.589 348.154" fill="#D66E4F"/>
<path d="M476.736 246.871L453.996 245.797L409.006 352.651L420.987 359.742C421.877 358.796 438.001 338.835 444.08 328.693C446.496 324.661 448.573 320.654 450.054 316.887L478.203 281.008L481.505 247.264L476.736 246.871" fill="#1C1B1B"/>
<path d="M409.006 352.651L415.312 356.383C420.49 348.27 439.526 317.866 440.793 307.415C442.627 303.748 473.134 248.719 473.134 248.719L467.445 246.432L453.996 245.797L409.006 352.651" fill="#393137"/>
<path d="M535.111 262.411C534.409 261.773 533.739 261.102 533.083 260.416C533.445 260.535 533.807 260.654 534.169 260.773C534.518 260.887 534.879 261.004 535.247 260.977C535.615 260.95 535.994 260.744 536.112 260.395C536.212 260.102 536.106 259.77 535.912 259.529C535.719 259.287 535.448 259.121 535.178 258.971C533.739 258.168 532.018 257.489 530.305 256.515C529.673 253.47 529.124 250.778 528.402 247.631C527.39 243.219 526.331 238.805 524.919 234.501C522.986 228.61 520.802 224.839 520.802 224.839C515.077 216.308 511.056 211.309 504.793 205.619C502.536 203.567 500.587 201.744 498.864 200.127L495.339 219.724L508.046 231.395C508.046 231.395 518.413 255.308 520.616 260.656C521.176 262.359 521.735 264.061 522.295 265.763C522.448 266.226 522.645 266.741 523.092 266.933C523.789 267.235 524.547 266.496 524.666 265.747C524.785 264.997 524.523 264.243 524.492 263.485C524.484 263.282 524.5 263.059 524.639 262.909C524.745 262.795 524.904 262.748 525.055 262.71C525.87 262.501 526.754 262.408 527.539 262.711C528.241 262.982 528.789 263.537 529.339 264.051C530.489 265.124 531.747 266.082 533.088 266.905C533.544 267.184 534.14 267.446 534.58 267.142C534.926 266.904 534.993 266.397 534.847 266.004C534.701 265.61 534.391 265.302 534.092 265.008C533.045 263.982 531.998 262.956 530.951 261.93C532.083 262.902 533.27 263.811 534.504 264.649C534.79 264.843 535.112 265.041 535.454 264.993C535.999 264.916 536.266 264.224 536.109 263.697C535.952 263.17 535.519 262.78 535.111 262.411" fill="#F8C7AE"/>
<path d="M504.017 227.694C503.773 218.785 505.166 210.28 505.871 206.613C505.519 206.283 505.161 205.952 504.793 205.619C502.536 203.567 500.587 201.744 498.864 200.127L495.339 219.724L504.017 227.694" fill="#F6AB93"/>
<path d="M470.073 199.039C469.092 195.931 467.739 193.128 466.044 189.285C465.708 188.522 464.105 185.655 464.105 185.655L458.095 165.353C458.095 165.353 461.349 140.652 462.171 135.183C462.548 133.513 462.926 131.842 463.305 130.172C463.407 129.716 463.499 129.198 463.226 128.819C462.803 128.23 461.818 128.463 461.353 129.019C460.887 129.574 460.731 130.322 460.384 130.959C460.291 131.129 460.168 131.305 459.981 131.359C459.836 131.4 459.683 131.361 459.541 131.318C458.77 131.088 457.999 130.73 457.505 130.095C457.062 129.529 456.887 128.804 456.688 128.113C456.272 126.667 455.712 125.264 455.016 123.93C454.78 123.477 454.42 122.969 453.91 123.002C453.509 123.028 453.205 123.41 453.131 123.804C453.058 124.199 453.16 124.603 453.262 124.992C453.615 126.348 453.969 127.703 454.323 129.059C453.873 127.706 453.347 126.377 452.746 125.083C452.608 124.785 452.441 124.463 452.136 124.334C451.653 124.13 451.094 124.566 450.963 125.075C450.832 125.584 450.996 126.117 451.149 126.62C451.412 127.488 451.632 128.369 451.831 129.253C451.593 128.977 451.355 128.702 451.116 128.427C450.886 128.16 450.647 127.888 450.332 127.729C450.018 127.57 449.605 127.553 449.337 127.781C449.112 127.972 449.035 128.297 449.076 128.59C449.115 128.883 449.255 129.152 449.403 129.408C450.19 130.774 451.266 132.176 452.192 133.816C451.213 136.623 450.34 139.1 449.385 142.036C448.047 146.151 446.745 150.29 445.788 154.513C444.477 160.294 443.727 167.308 443.727 167.308C443.972 174.154 445.754 180.342 448.093 188.086C448.994 191.071 452.65 203.683 453.299 205.268C455.374 211.534 457.978 219.115 459.265 221.734C461.597 226.478 465.011 228.333 465.011 228.333L470.238 220.243L472.504 204.332L470.073 199.039" fill="#F8C7AE"/>
<path d="M458.057 135.695C457.931 135.65 457.835 135.539 457.815 135.398C457.438 132.774 453.724 132.497 453.686 132.495C453.571 132.487 453.466 132.426 453.402 132.33L451.747 129.845C451.633 129.674 451.68 129.444 451.85 129.33C452.021 129.217 452.252 129.265 452.364 129.433L453.921 131.771C454.769 131.865 458.138 132.418 458.549 135.293C458.578 135.496 458.438 135.684 458.234 135.713C458.172 135.721 458.112 135.715 458.057 135.695" fill="#CD8578"/>
<path d="M462.799 222.507L467.75 206.736L470.868 200.868L470.719 200.446L470.073 199.04C469.326 196.672 468.362 194.479 467.196 191.872L453.299 205.268C453.299 205.268 457.198 216.742 459.265 221.734C459.618 222.45 459.995 223.093 460.381 223.682C461.841 225.261 462.799 222.507 462.799 222.507" fill="#F6AB93"/>
<path d="M499.354 218.368L501.005 198.667C501.005 198.667 483.507 195.178 478.263 194.759C477.456 194.694 467.841 192.666 467.75 192.982C463.564 207.681 457.906 223.497 453.544 238.146C453.544 238.146 449.475 239.838 449.814 243.117C450.152 246.363 452.19 247.404 452.19 247.404L495.458 250.119C495.458 250.119 498.93 249.781 499.626 247.106C499.633 247.092 499.633 247.079 499.64 247.066C500.316 244.352 497.489 240.628 497.489 240.628C497.489 240.628 498.812 229.385 499.354 218.368" fill="#6C8DD0"/>
<path d="M467.75 192.982C463.564 207.681 457.906 223.498 453.544 238.146C453.544 238.146 449.475 239.838 449.814 243.117C450.152 246.362 452.19 247.404 452.19 247.404L473.134 248.719C473.599 248.722 474.054 248.727 474.535 248.732C472.091 241.64 477.959 236.261 477.959 236.261C477.959 236.261 476.736 234.306 475.759 231.615C474.78 228.926 478.448 224.525 478.448 224.525L482.36 196.894L479.258 194.858C478.893 194.816 478.557 194.782 478.263 194.759C477.456 194.694 467.841 192.666 467.75 192.982" fill="#556ABC"/>
<path d="M489.206 196.467C487.74 199.034 484.32 199.261 482.263 199.139C480.014 199.013 475.636 196.283 475.086 194.633C475.214 194.182 476.619 192.397 477.506 190.329C478.466 188.094 479.416 185.907 479.416 185.907L480.119 183.541L487.307 184.154C487.307 184.154 487.307 184.154 487.307 184.161C487.321 184.172 487.351 184.443 487.404 184.898C487.423 185.05 487.439 185.222 487.455 185.414C487.456 185.42 487.456 185.42 487.456 185.42C487.516 185.962 487.723 186.197 487.792 186.996C487.839 187.552 488.103 189.602 488.368 191.67C488.652 193.804 489.095 195.95 489.206 196.467" fill="#F8C7AE"/>
<path d="M488.368 191.67C486.958 192.245 485.418 192.538 483.795 192.484C481.444 192.414 479.277 191.621 477.506 190.329C478.466 188.094 479.416 185.907 479.416 185.907L480.119 183.541L487.307 184.154C487.307 184.154 487.307 184.154 487.307 184.161C487.321 184.172 487.351 184.443 487.404 184.898C487.423 185.05 487.439 185.222 487.455 185.414C487.456 185.42 487.456 185.42 487.456 185.42C487.516 185.962 487.723 186.197 487.792 186.996C487.839 187.552 488.103 189.602 488.368 191.67Z" fill="#F6AB93"/>
<path d="M483.334 187.264L484.105 187.359C488.314 187.877 492.146 184.886 492.665 180.676L493.572 173.315C493.875 170.86 492.129 168.624 489.674 168.322L482.552 167.444C480.097 167.141 477.861 168.887 477.558 171.342L476.651 178.704C476.133 182.913 479.125 186.745 483.334 187.264" fill="#F8C7AE"/>
<path d="M495.606 172.908C495.481 175.317 494.668 177.658 493.751 179.895C493.34 180.908 492.916 182.093 492.241 182.963C492.138 183.1 491.691 183.455 491.675 183.61C491.955 181.355 493.317 176.29 490.404 175.191C489.305 174.779 488.092 174.939 486.924 174.973C485.459 175.019 483.948 174.853 482.649 174.184C481.345 173.508 480.279 172.26 480.113 170.802C478.82 173.394 477.458 176.02 477.132 178.905C477.057 179.557 477.017 180.21 477 180.862C476.989 181.177 476.88 181.801 477.115 182.059C476.714 181.624 476.537 181.034 476.388 180.462C475.701 177.858 475.312 175.122 475.678 172.438C475.896 170.847 476.285 169.199 477.029 167.768C477.498 166.886 478.162 166.08 479.049 165.616C479.942 165.147 480.99 165.061 481.997 165.124C482.157 165.135 482.323 165.147 482.477 165.112C482.649 165.067 482.803 164.969 482.953 164.872C483.102 164.781 483.25 164.695 483.405 164.614C485.928 163.258 489.168 163.321 491.623 164.803C493.821 166.137 495.303 168.558 495.566 171.11C495.629 171.711 495.641 172.312 495.606 172.908" fill="#FAB819"/>
<path d="M495.607 172.908C495.114 172.976 494.61 173.011 494.101 173.011C488.921 173.011 484.578 169.433 483.405 164.614C485.928 163.258 489.168 163.321 491.623 164.803C493.821 166.137 495.303 168.558 495.566 171.11C495.629 171.711 495.641 172.312 495.607 172.908" fill="#FBD22E"/>
<path d="M255.078 238.053L268.085 263.765L285.745 257.752L295.665 251.684L307.428 249.099L299.907 218.35L255.078 238.053" fill="#EC8963"/>
<path d="M289.328 222.569L312.925 213.437L293.535 196.759L303.488 189.496C303.488 189.496 315.281 194.836 326.556 203.208C337.832 211.58 335.563 216.605 330.197 221.582C324.832 226.56 296.935 240.211 296.935 240.211L289.328 222.569" fill="#EC8963"/>
<path d="M296.383 198.986L302.207 195.224C302.207 195.224 313.351 210.187 312.925 213.437C302.1 203.708 296.383 198.986 296.383 198.986Z" fill="#D66E4F"/>
<path d="M304.315 236.532L302.759 230.115C302.759 230.115 333.695 215.122 334.508 213.527C334.461 219.932 324.816 225.068 324.816 225.068L304.315 236.532" fill="#D66E4F"/>
<path d="M293.841 197.075C292.996 196.442 292.149 195.809 291.304 195.176C290.79 194.791 290.259 194.387 289.957 193.827C289.655 193.268 289.662 192.508 290.144 192.147C289.415 191.73 288.927 190.907 288.932 190.099C288.936 189.293 289.431 188.539 290.164 188.225C290.51 188.077 290.904 188.018 291.212 187.808C291.559 187.571 291.759 187.167 292.113 186.94C292.723 186.548 293.592 186.79 294.272 186.52C294.588 186.395 294.843 186.166 295.123 185.977C295.667 185.608 296.319 185.389 296.995 185.346C299.01 185.217 300.872 186.593 302.506 187.891C303.568 188.736 304.631 189.579 305.693 190.424C306.021 190.683 306.349 190.944 306.688 191.189L299.272 196.563L293.841 197.075" fill="#EC8963"/>
<path d="M297.409 192.933C297.413 192.927 297.417 192.922 297.422 192.915C297.526 192.772 297.492 192.57 297.348 192.466C296.663 191.974 295.453 192.111 294.584 192.303L294.753 192.098C294.98 191.824 295.067 191.537 295.011 191.248C294.906 190.715 294.348 190.35 293.763 190.034C292.939 189.592 290.816 191.189 289.941 191.897C289.807 192.006 289.781 192.211 289.893 192.349C290.005 192.488 290.208 192.509 290.347 192.397C291.684 191.316 293.167 190.46 293.458 190.602C293.67 190.716 294.318 191.064 294.378 191.372C294.385 191.406 294.405 191.508 294.256 191.688L292.702 193.569L293.789 193.192C294.439 192.966 296.278 192.49 296.973 192.989C297.111 193.088 297.301 193.063 297.409 192.933" fill="#1C1B1B"/>
<path d="M292.621 190.755C292.725 190.63 292.719 190.443 292.601 190.324C292.07 189.786 291.126 188.096 291.117 188.079C291.03 187.923 290.834 187.868 290.679 187.954C290.525 188.04 290.467 188.236 290.554 188.392C290.594 188.465 291.549 190.178 292.144 190.778C292.269 190.904 292.473 190.904 292.6 190.78C292.608 190.772 292.614 190.764 292.621 190.755" fill="#1C1B1B"/>
<path d="M296.111 192.117C296.592 191.535 296.596 190.739 296.095 189.887C295.618 189.077 294.065 186.684 293.999 186.582C293.902 186.433 293.703 186.39 293.553 186.487C293.405 186.584 293.362 186.784 293.459 186.933C293.474 186.957 295.071 189.416 295.54 190.214C295.857 190.752 296.073 191.493 295.285 191.987C295.136 192.081 295.088 192.28 295.182 192.431C295.277 192.582 295.475 192.628 295.627 192.533C295.821 192.412 295.982 192.272 296.111 192.117Z" fill="#1C1B1B"/>
<path d="M298.559 190.892C298.861 190.527 299.042 190.119 299.027 189.706C298.99 188.678 296.83 186.038 296.397 185.519C296.283 185.382 296.08 185.364 295.943 185.478C295.803 185.595 295.788 185.795 295.902 185.931C296.85 187.068 298.361 189.104 298.384 189.73C298.411 190.475 297.189 191.434 296.008 191.599C295.833 191.623 295.709 191.787 295.734 191.962C295.758 192.139 295.921 192.262 296.097 192.237C297.004 192.11 297.994 191.577 298.559 190.892" fill="#1C1B1B"/>
<path d="M263.76 234.106L240.26 243.484L243.105 218.067L230.871 219.525C230.871 219.525 225.87 231.466 223.312 245.275C220.755 259.083 225.838 261.219 233.156 261.211C240.475 261.203 270.202 252.206 270.202 252.206L263.76 234.106" fill="#EC8963"/>
<path d="M242.535 221.637L235.708 222.848C235.708 222.848 237.735 241.395 240.26 243.484C241.563 228.988 242.535 221.637 242.535 221.637Z" fill="#D66E4F"/>
<path d="M243.096 218.507C243.284 217.468 243.473 216.428 243.661 215.388C243.775 214.757 243.889 214.099 243.73 213.484C243.57 212.869 243.047 212.317 242.448 212.38C242.698 211.579 242.494 210.644 241.942 210.056C241.39 209.468 240.513 209.253 239.763 209.522C239.409 209.649 239.081 209.874 238.712 209.93C238.296 209.993 237.875 209.833 237.461 209.908C236.748 210.037 236.276 210.805 235.594 211.07C235.277 211.194 234.934 211.2 234.601 211.252C233.951 211.353 233.324 211.636 232.8 212.065C231.236 213.343 230.81 215.618 230.497 217.681C230.293 219.023 230.09 220.364 229.887 221.706C229.824 222.119 229.761 222.533 229.679 222.943L238.77 221.83L243.096 218.507" fill="#EC8963"/>
<path d="M237.663 217.903C237.656 217.902 237.649 217.9 237.641 217.899C237.467 217.864 237.355 217.695 237.389 217.52C237.556 216.693 238.535 215.969 239.303 215.518L239.04 215.483C238.686 215.437 238.427 215.286 238.272 215.035C237.986 214.574 238.145 213.927 238.36 213.298C238.662 212.412 241.304 212.136 242.427 212.059C242.599 212.047 242.758 212.18 242.77 212.358C242.782 212.536 242.648 212.69 242.47 212.702C240.755 212.821 239.086 213.203 238.97 213.505C238.892 213.734 238.654 214.43 238.819 214.696C238.838 214.725 238.893 214.814 239.124 214.845L241.543 215.164L240.49 215.628C239.861 215.905 238.19 216.809 238.021 217.647C237.987 217.814 237.83 217.925 237.663 217.903Z" fill="#1C1B1B"/>
<path d="M239.687 213.048C239.525 213.027 239.402 212.885 239.407 212.719C239.431 211.963 238.971 210.082 238.966 210.064C238.923 209.891 239.03 209.716 239.202 209.674C239.373 209.631 239.549 209.737 239.592 209.909C239.612 209.99 240.078 211.895 240.051 212.739C240.045 212.917 239.897 213.056 239.719 213.051C239.708 213.05 239.697 213.05 239.687 213.048Z" fill="#1C1B1B"/>
<path d="M238.058 216.422C237.309 216.322 236.764 215.742 236.551 214.778C236.349 213.861 235.857 211.049 235.836 210.929C235.805 210.755 235.923 210.588 236.098 210.557C236.273 210.527 236.44 210.644 236.47 210.819C236.476 210.848 236.981 213.735 237.181 214.639C237.315 215.249 237.661 215.939 238.575 215.764C238.748 215.732 238.918 215.844 238.951 216.019C238.985 216.194 238.871 216.363 238.696 216.397C238.471 216.44 238.258 216.448 238.058 216.422" fill="#1C1B1B"/>
<path d="M235.431 217.192C234.961 217.13 234.551 216.954 234.281 216.642C233.608 215.863 233.392 212.458 233.356 211.784C233.346 211.606 233.483 211.454 233.66 211.445C233.842 211.435 233.99 211.572 233.999 211.749C234.079 213.226 234.358 215.747 234.768 216.221C235.255 216.784 236.803 216.655 237.781 215.972C237.925 215.871 238.127 215.906 238.229 216.051C238.331 216.197 238.296 216.398 238.149 216.499C237.399 217.025 236.311 217.308 235.431 217.192Z" fill="#1C1B1B"/>
<path d="M263.15 254.054L260.2 246.626C260.2 246.626 243.721 255.515 230.069 261.023C237.87 261.88 263.15 254.054 263.15 254.054Z" fill="#D66E4F"/>
<path d="M251.658 358.403C251.658 358.403 264.877 376.115 264.878 376.115C265.176 376.515 268.689 376.142 269.188 376.146C271.359 376.161 273.509 375.773 275.65 376.118C276.379 370.866 272.199 365.396 269.91 360.886C268.467 358.046 267.024 355.205 265.582 352.363L251.658 358.403Z" fill="#EC8963"/>
<path d="M246.537 383.991L275.897 384.201C275.897 384.201 276.792 370.995 275.461 370.452C271.961 374.697 265.538 377.054 261.575 371.42C261.575 371.42 247.111 378.389 244.17 379.169C241.228 379.949 240.934 383.684 240.934 383.684L246.537 383.991Z" fill="#100F0D"/>
<path d="M241.656 381.286C241.031 382.473 240.934 383.684 240.934 383.684L246.537 383.991L275.897 384.201C275.897 384.201 275.971 383.104 276.045 381.533L241.656 381.286" fill="#B5B5B4"/>
<path d="M267.384 355.913L253.56 360.951C253.844 361.331 254.151 361.742 254.477 362.18L273.482 367.391L273.331 367.069C272.196 364.895 270.883 362.803 269.91 360.886C269.068 359.229 268.226 357.571 267.384 355.913Z" fill="#D66E4F"/>
<path d="M401.355 368.601C401.355 368.601 416.485 377.296 418.126 378.629C419.768 379.962 421.07 382.613 419.407 384.253C392.657 384.061 387.93 382.706 387.93 382.706C387.93 382.706 386.324 376.42 386.364 370.805L401.355 368.601Z" fill="#100F0D"/>
<path d="M387.873 383.67C387.873 383.67 392.657 384.061 419.407 384.253C420.41 383.264 420.331 381.908 419.753 380.695L387.432 380.463C387.709 381.838 387.873 383.67 387.873 383.67" fill="#B5B5B4"/>
<path d="M373.888 361.148L390.344 374.078C390.344 374.078 397.814 374.665 401.325 368.818L385.441 350.554L373.888 361.148Z" fill="#EC8963"/>
<path d="M385.441 350.554L373.888 361.148L383.785 368.924L389.147 354.851L389.162 354.832L385.441 350.554" fill="#D66E4F"/>
<path d="M378.266 341.108L311.575 266.212L293.659 270.888L293.675 270.951L275.927 275.272C275.927 275.272 275.919 275.272 275.912 275.278C275.905 275.286 275.89 275.294 275.875 275.309C275.649 275.467 272.984 277.385 272.86 277.475C272.846 277.482 272.839 277.49 272.824 277.498C272.605 277.655 226.962 303.441 220.895 312.006C218.747 315.038 220.049 318.406 229.408 332.353C229.408 332.361 229.408 332.361 229.408 332.361C239.871 345.774 242.848 349.398 252.565 361.507L267.733 355.98L260.47 358.626L235.948 315.851L286.322 288.986L299.034 302.957C310.367 313.848 324.132 320.553 337.287 328.455C349.182 344.755 362.703 353.2 376.317 364.377L389.616 353.769L378.266 341.108Z" fill="#6C8DD0"/>
<path d="M235.948 315.851L260.47 358.626L267.733 355.98C263.914 342.943 258.596 330.894 253.23 323.693L299.034 302.957L286.322 288.986L235.948 315.851" fill="#556ABC"/>
<path d="M274.132 276.621L265.124 259.972C265.124 259.972 268.677 255.584 266.882 247.218C265.445 240.549 262.155 234.628 262.155 234.628L275.003 229.649L280.632 226.219L290.74 222.044C290.74 222.044 290.875 228.523 293.44 232.613C296.427 237.381 305.763 241.765 305.763 241.765L312.632 267.821L274.132 276.621" fill="#298E3E"/>
<path d="M274.132 276.621L291.637 272.619L275.333 229.448L275.003 229.649L262.155 234.628C262.155 234.628 265.445 240.549 266.882 247.218C268.677 255.584 265.124 259.972 265.124 259.972L274.132 276.621" fill="#226D34"/>
<path d="M266.591 220.847L267.911 232.267C267.911 232.267 269.553 238.283 278.165 235.276C285.658 232.661 281.769 225.961 281.769 225.961L274.625 217.101L266.591 220.847Z" fill="#EC8963"/>
<path d="M278.2 221.534L274.625 217.101L266.591 220.847L267.273 226.754C269.118 227.4 271.18 227.439 273.022 226.78C275.415 225.923 277.346 223.92 278.2 221.534" fill="#D66E4F"/>
<path d="M259.423 216.565C259.992 216.32 260.594 216.337 261.078 216.555L261.081 216.562C261.295 216.772 261.477 217.031 261.603 217.323C261.879 217.967 262.12 218.734 262.097 219.382C261.993 219.595 261.816 219.76 261.553 219.873" fill="#BC887C"/>
<path d="M272.985 221.993L270.47 223.073C266.855 224.625 262.666 222.954 261.114 219.338L257.433 210.768C256.528 208.66 257.503 206.216 259.611 205.311L267.582 201.888C269.69 200.982 272.134 201.957 273.039 204.066L276.72 212.636C278.272 216.251 276.601 220.44 272.985 221.993Z" fill="#EC8963"/>
<path d="M277.19 215.386C276.633 213.304 275.743 211.381 274.69 209.518C274.208 208.677 273.11 207.097 271.984 207.95C269.615 209.747 267.566 211.534 264.248 212.13C262.572 212.425 259.773 211.942 259.477 211.271C259.702 211.779 259.638 212.357 259.809 212.882C259.95 213.316 260.122 213.691 260.203 214.162C260.29 214.699 260.37 215.241 260.523 215.766C260.905 217.107 261.409 218.279 261.774 219.511C261.921 220.006 262.233 220.936 262.61 221.366C261.557 220.383 260.51 219.315 259.663 218.152C258.839 217.038 258.119 215.846 257.253 214.755C255.934 213.095 255.135 211.029 254.975 208.913C254.882 207.629 254.771 205.526 255.328 204.319C255.346 204.283 255.364 204.24 255.383 204.204C256.141 202.704 258.028 201.597 259.55 201.095C260.414 200.806 261.324 200.656 262.24 200.675C262.535 200.677 264.466 201.161 264.557 201.089C265.841 200.014 267.414 199.128 269.089 199.206C270.335 199.257 271.5 199.85 272.44 200.682C272.685 200.901 272.919 201.131 273.133 201.38C274.084 202.465 274.864 203.754 275.481 205.131C276.329 207.03 276.753 209.172 277.051 211.216C277.155 211.898 277.234 212.579 277.254 213.266C277.273 213.874 277.038 214.818 277.19 215.386" fill="#AC3C1F"/>
<path d="M272.44 200.682C271.45 201.729 270.329 202.655 269.113 203.412C266.868 204.805 263.855 205.699 261.673 204.213C260.228 205.631 257.801 205.559 256.025 204.594C255.802 204.472 255.586 204.345 255.383 204.205C256.141 202.704 258.028 201.597 259.55 201.095C260.414 200.806 261.324 200.656 262.24 200.675C262.535 200.677 264.466 201.161 264.557 201.089C265.841 200.014 267.414 199.128 269.089 199.206C270.335 199.257 271.5 199.85 272.44 200.682" fill="#BE501F"/>
<path d="M276.169 204.919L276.938 206.709C277.176 207.265 277.022 207.894 276.587 208.272C276.482 208.369 276.359 208.447 276.22 208.507L258.209 216.242C257.514 216.54 256.709 216.219 256.411 215.525L255.645 213.741C255.391 213.149 255.587 212.476 256.079 212.109C256.161 212.039 256.257 211.98 256.36 211.937L274.371 204.201C275.066 203.903 275.871 204.224 276.169 204.919" fill="#298E3E"/>
<path d="M276.587 208.272C276.482 208.369 276.359 208.447 276.22 208.507L258.209 216.242C257.514 216.54 256.709 216.219 256.411 215.525L255.645 213.741C255.391 213.149 255.587 212.476 256.079 212.109C257.57 211.832 259.109 211.665 260.5 211.396C263.225 210.867 265.95 210.337 268.682 209.805C271.321 209.295 273.952 208.789 276.587 208.272" fill="#226D34"/>
<path d="M417.691 162.269C417.11 161.382 416.276 160.3 415.242 159.091C410.824 153.915 402.807 146.334 395.151 141.265L395.176 141.241C394.115 140.576 392.977 139.838 391.917 139.172C391.724 139.051 391.522 138.922 391.404 138.722C391.296 138.541 391.269 138.323 391.244 138.112C391.147 137.297 391.051 136.482 390.954 135.666C390.892 135.136 390.815 134.574 390.484 134.165C390.153 133.756 389.471 133.613 389.149 134.022C388.973 134.247 388.954 134.56 388.944 134.852C388.895 136.353 388.91 137.856 388.986 139.358C388.702 138.161 388.419 136.963 388.136 135.766C387.989 135.148 387.712 134.403 387.107 134.337C386.647 134.287 386.245 134.708 386.125 135.172C386.004 135.636 386.095 136.13 386.179 136.605C386.409 137.914 386.584 139.232 386.704 140.555C386.238 139.407 385.772 138.258 385.306 137.109C385.169 136.774 385.01 136.412 384.697 136.251C384.193 135.991 383.576 136.446 383.422 137.006C383.269 137.567 383.436 138.166 383.603 138.726C384.201 140.742 384.793 142.76 385.378 144.781C385.424 144.941 385.47 145.115 385.412 145.269C385.353 145.428 385.199 145.524 385.049 145.59C384.582 145.796 384.062 145.835 383.58 145.998C383.098 146.161 382.617 146.51 382.529 147.032C382.417 147.693 383.005 148.304 383.632 148.465C384.258 148.625 384.909 148.471 385.546 148.381C385.946 148.325 386.368 148.314 386.759 148.403C389.399 151.044 396.061 157.722 402.58 164.733C402.58 164.733 399.806 169.181 396.471 174.725C395.07 177.042 393.579 179.556 392.152 182.008C391.977 182.304 391.81 182.598 391.636 182.893C391.121 183.784 390.6 184.684 390.086 185.583C391.112 188.007 396.79 193.7 397.628 194.023C398.324 194.292 398.863 194.86 399.479 195.353C400.892 196.475 402.56 197.715 403.52 198.132C403.581 197.984 407.534 192.747 407.548 192.693C407.966 191.513 410.772 188.261 414.35 180.087C416.834 174.412 417.792 169.169 418.386 166.369C418.608 165.317 418.708 164.576 418.663 164.236C418.607 163.81 418.268 163.134 417.691 162.269" fill="#EC8963"/>
<path d="M408.237 192.987C402.943 200.172 397.504 206.78 393.104 209.069C383.895 213.849 377.815 206.383 376.783 200.801C376.55 199.543 376.568 198.384 376.87 197.481C378.314 193.104 386.077 186.033 393.804 178.347C395.62 180.149 398.057 182.613 400.563 185.166C403.272 187.915 406.062 190.77 408.237 192.987" fill="#F9B132"/>
<path d="M400.563 185.166C394.972 187.792 382.674 193.715 376.783 200.801C376.55 199.543 376.568 198.384 376.87 197.481C378.314 193.104 386.077 186.033 393.804 178.347C395.62 180.149 398.057 182.613 400.563 185.166" fill="#FAB819"/>
<path d="M413.592 211.562L415.472 229.826L386.56 236.821L383.51 219.351L413.592 211.562Z" fill="#F3A171"/>
<path d="M414.129 213.442C414.129 213.442 386.196 228.214 385.927 233.049C384.047 222.037 384.047 222.037 384.047 222.037L414.129 213.442Z" fill="#EC8963"/>
<path d="M377.221 192.064C377.221 192.064 375.922 204.981 378.138 210.621C380.354 216.262 382.973 221.902 382.973 221.902L414.129 213.442C414.129 213.442 411.712 196.789 410.369 194.641C406.669 188.721 391.636 182.893 391.636 182.893L384.785 185.239L377.221 192.064" fill="#FAB819"/>
<path d="M390.691 289.122C390.231 304.945 389.855 319.278 389.855 323.814C389.855 330.536 392.29 341.786 394.354 350.899C395.156 354.464 395.907 357.708 396.432 360.224C396.432 360.224 397.476 366.001 397.476 366.807C397.476 367.613 395.865 373.254 395.865 373.254L405.803 381.579L410.186 330.736C410.409 329.124 410.627 327.55 410.838 326.037V326.031C411.348 322.349 411.815 319.024 412.194 316.363C412.769 312.35 413.447 304.556 414.138 295.193L390.691 289.122" fill="#F3A171"/>
<path d="M393.097 372.939L390.262 375.744C390.262 375.744 398.508 390.16 400.24 392.586C401.972 395.013 403.716 395.426 406.265 395.977C408.813 396.529 411.501 396.141 411.501 396.141L411.923 392.786L406.685 392.757L401.6 389.505L397.079 381.422L393.097 372.939Z" fill="#FBD22E"/>
<path d="M411.511 393.863C410.64 394.354 405.307 393.828 403.701 392.821C402.095 391.82 393.404 377.297 392.551 374.682C391.999 372.995 394.985 371.607 397.016 368.663C399.194 372.875 400.923 377.195 405.222 378.918C405.455 379.014 405.695 379.096 405.935 379.177C406.565 383.84 407.311 388.735 407.694 389.249C408.433 390.244 411.155 390.879 411.647 391.626C412.139 392.372 412.381 393.372 411.511 393.863" fill="#ED156A"/>
<path d="M389.015 291.602L413.995 301.674C413.995 301.674 419.635 247.016 416.009 229.02C387.404 237.615 387.404 237.615 387.404 237.615L389.015 291.602" fill="#FAB819"/>
<path d="M388.601 183.884C387.989 186.414 386.451 188.666 383.993 190.219C381.565 191.75 379.276 192.224 377.22 192.064L374.596 186.931L383.964 181.536C383.964 181.536 385.823 182.469 388.601 183.884Z" fill="#EC8963"/>
<path d="M372.57 198.521C373.47 199.338 374.04 200.526 374.044 201.843C374.052 204.337 372.036 206.372 369.536 206.381C368.086 206.385 366.798 205.702 365.968 204.643C365.523 206.521 363.841 207.913 361.831 207.92C360.215 207.925 358.807 207.033 358.077 205.718C357.891 205.388 357.751 205.026 357.66 204.651C357.628 204.536 357.609 204.416 357.589 204.295C357.469 204.32 357.348 204.334 357.227 204.347C357.125 204.354 357.017 204.36 356.915 204.361C356.648 204.361 356.387 204.337 356.133 204.287C356.12 204.287 356.1 204.281 356.088 204.275C355.063 204.055 354.19 203.428 353.646 202.571C353.595 202.495 353.55 202.425 353.505 202.349C353.326 202.018 353.191 201.663 353.114 201.288C353.094 201.167 353.075 201.046 353.062 200.925C353.042 200.792 353.035 200.652 353.035 200.506C353.032 199.564 353.366 198.698 353.917 198.022C353.93 198.015 353.936 198.003 353.943 197.997C353.764 197.851 353.598 197.686 353.451 197.508C353.451 197.508 353.451 197.508 353.451 197.502C352.909 196.88 352.556 196.105 352.451 195.247C352.432 195.082 352.418 194.91 352.418 194.738C352.41 192.448 354.205 190.572 356.475 190.457C356.187 189.917 356.026 189.294 356.024 188.639C356.017 186.565 357.596 184.855 359.618 184.663C359.738 184.65 359.865 184.644 359.993 184.643C360.216 184.643 360.451 184.661 360.68 184.699H360.687C361.062 184.761 361.438 184.874 361.769 185.058C362.158 185.272 362.414 185.698 362.884 185.544C363.354 185.396 363.703 184.841 363.98 184.204C364.29 183.49 364.51 182.688 364.693 182.249C365.071 181.326 365.59 180.401 366.428 179.864C367.431 179.231 368.398 181.225 369.029 181.834C369.68 182.455 370.178 182.931 370.423 183.833C370.558 184.342 370.39 185.449 370.665 185.805C370.914 186.141 371.709 186.373 372.055 186.716C372.846 187.496 373.295 188.576 373.298 189.689C373.299 190.052 373.256 190.401 373.168 190.739C374.785 191.256 375.961 192.765 375.967 194.553C375.973 196.563 374.496 198.235 372.57 198.521" fill="#1C1B1B"/>
<path d="M363.931 200.146C363.208 201.211 361.373 201.999 360.377 200.78C361.022 201.797 360.843 203.209 360.127 204.191C359.62 204.893 358.884 205.391 358.077 205.718C357.891 205.388 357.751 205.026 357.66 204.651C357.628 204.536 357.609 204.416 357.589 204.295C357.469 204.32 357.348 204.334 357.227 204.347C357.125 204.354 357.017 204.36 356.915 204.361C356.648 204.361 356.387 204.337 356.133 204.287C356.12 204.287 356.1 204.281 356.088 204.275C355.063 204.055 354.19 203.428 353.646 202.572C353.595 202.495 353.55 202.425 353.505 202.349C353.326 202.018 353.191 201.663 353.114 201.288C353.094 201.167 353.075 201.046 353.062 200.925C353.042 200.792 353.035 200.652 353.035 200.506C353.032 199.564 353.366 198.698 353.917 198.022C353.93 198.015 353.936 198.003 353.943 197.997C353.764 197.851 353.598 197.686 353.451 197.508C353.451 197.508 353.451 197.508 353.451 197.502C352.909 196.88 352.556 196.105 352.451 195.247C352.432 195.082 352.418 194.91 352.418 194.738C352.41 192.448 354.205 190.572 356.475 190.457C356.187 189.917 356.026 189.294 356.024 188.639C356.017 186.565 357.596 184.855 359.618 184.664C360.224 185.088 360.804 185.557 361.194 186.186C362.23 187.874 361.57 190.16 360.277 191.659C362.263 191.977 364.011 193.479 364.621 195.392C365.129 196.968 364.855 198.782 363.931 200.146" fill="#393137"/>
<path d="M367.428 183.084L366.67 187.073L362.262 186.233H362.256L363.013 182.244L365.513 182.721L367.428 183.084" fill="#ED156A"/>
<path d="M365.247 182.493C365.247 182.493 371.662 191.669 380.027 186.391C386.799 182.117 386.599 170.534 375.922 167.513C366.766 164.922 360.375 177.377 365.247 182.493Z" fill="#F3A171"/>
<path d="M376.154 165.504C377.289 165.595 377.969 166.816 377.929 167.88C377.878 169.226 376.229 171.003 374.871 171.051C375.601 171.854 375.407 173.247 374.588 173.958C373.77 174.671 372.51 174.73 371.527 174.271C372.083 175.136 372.037 176.346 371.416 177.165C371.103 177.578 370.671 177.887 370.347 178.291C369.379 179.499 369.985 181.404 368.754 182.758C367.935 183.656 367.147 183.377 366.172 183.744C365.198 184.11 365.041 184.924 363.758 184.591C361.623 184.038 360.32 181.416 359.985 179.369C359.947 179.159 359.928 178.949 359.915 178.733C359.896 178.275 359.947 177.823 360.042 177.397C359.101 176.748 358.465 175.686 358.42 174.452C358.35 172.855 359.298 171.449 360.691 170.858C360.577 170.444 360.507 170.006 360.487 169.554C360.386 167.041 361.849 164.841 364.006 163.867C365.049 163.405 366.23 163.465 367.055 162.936C367.918 162.382 367.883 161.235 369.223 161.013C370.29 160.837 371.5 161.612 371.559 162.692C372.399 161.841 373.854 161.687 374.854 162.345C375.853 163.002 376.289 164.398 375.84 165.507C375.948 165.496 376.052 165.496 376.154 165.504" fill="#1C1B1B"/>
<path d="M365.21 174.208C365.321 176.955 363.184 179.272 360.438 179.383C360.282 179.389 360.132 179.382 359.982 179.368C359.947 179.162 359.926 178.948 359.917 178.734C359.899 178.273 359.946 177.822 360.045 177.395C359.102 176.751 358.468 175.684 358.417 174.45C358.353 172.853 359.298 171.449 360.691 170.86C360.577 170.442 360.507 170.002 360.489 169.555C360.388 167.042 361.846 164.837 364.005 163.865C364.323 164.49 364.514 165.185 364.543 165.931C364.603 167.405 364.014 168.749 363.031 169.705C363.032 169.738 363.04 169.776 363.042 169.809C363.049 169.978 363.049 170.141 363.036 170.297C364.293 171.157 365.144 172.572 365.21 174.208" fill="#393137"/>
<path d="M368.569 178.995C368.771 179.499 366.428 179.864 366.428 179.864C366.428 179.864 365.169 183.358 365.145 183.426C364.824 184.317 368.682 186.625 369.302 186.952C370.667 187.674 372.203 188.114 373.747 188.062C374.003 188.054 372.605 184.875 372.217 184.545C372.547 184.026 372.507 183.341 372.333 182.747C371.878 181.192 370.537 179.949 368.983 179.639L368.569 178.995" fill="#1C1B1B"/>
<path d="M422.016 163.506C421.556 162.551 420.871 161.37 420.003 160.036C416.301 154.326 409.344 145.761 402.418 139.734L402.445 139.713C401.481 138.915 400.45 138.035 399.485 137.236C399.309 137.09 399.127 136.936 399.036 136.722C398.952 136.529 398.954 136.309 398.957 136.097C398.968 135.276 398.979 134.456 398.989 133.634C398.996 133.101 398.995 132.533 398.719 132.085C398.445 131.635 397.788 131.405 397.416 131.769C397.212 131.968 397.151 132.276 397.103 132.565C396.858 134.046 396.675 135.538 396.555 137.036C396.43 135.813 396.306 134.589 396.182 133.364C396.118 132.733 395.94 131.958 395.349 131.814C394.9 131.703 394.446 132.068 394.266 132.513C394.086 132.956 394.111 133.458 394.132 133.94C394.189 135.268 394.19 136.598 394.137 137.926C393.824 136.726 393.512 135.526 393.2 134.326C393.109 133.976 392.998 133.596 392.71 133.396C392.244 133.072 391.572 133.442 391.347 133.978C391.122 134.513 391.21 135.129 391.301 135.706C391.631 137.783 391.953 139.861 392.269 141.94C392.294 142.105 392.316 142.284 392.239 142.43C392.159 142.58 391.995 142.655 391.836 142.701C391.347 142.844 390.826 142.813 390.327 142.913C389.828 143.011 389.306 143.294 389.149 143.8C388.952 144.441 389.455 145.123 390.056 145.365C390.656 145.606 391.322 145.538 391.965 145.533C392.369 145.528 392.788 145.573 393.164 145.712C395.435 148.676 401.168 156.168 406.713 163.972C406.713 163.972 403.38 168.019 399.349 173.079C397.657 175.193 395.85 177.49 394.114 179.735C393.903 180.004 393.699 180.275 393.487 180.544C392.86 181.361 392.226 182.185 391.599 183.009C392.299 185.546 393.48 187.959 395.091 190.044C395.361 190.394 395.638 190.723 395.929 191.05C396.579 191.772 397.184 191.933 397.971 192.362C398.627 192.72 399.086 193.354 399.633 193.923C400.887 195.221 402.28 196.395 403.745 197.452C404.598 198.064 405.48 198.64 406.377 199.18C406.457 199.041 406.545 198.902 406.632 198.764C406.837 198.436 407.041 198.101 407.238 197.758C408.098 196.322 408.958 194.82 409.811 193.296C409.979 192.997 410.146 192.698 410.314 192.392C410.606 191.86 410.898 191.328 411.189 190.788C411.233 190.7 411.284 190.613 411.335 190.525C411.67 189.905 411.998 189.286 412.333 188.659C413.121 187.172 413.901 185.67 414.666 184.168C414.689 184.117 414.718 184.066 414.74 184.014C415.308 182.9 415.855 181.799 416.373 180.734C419.099 175.171 421.214 170.359 422.169 167.661C422.526 166.648 422.723 165.927 422.723 165.584C422.723 165.154 422.476 164.439 422.016 163.506" fill="#F3A171"/>
<path d="M410.314 192.392C405.99 200.2 401.448 207.454 397.38 210.291C388.865 216.218 381.873 209.598 380.131 204.196C379.737 202.978 379.605 201.826 379.788 200.893C380.656 196.366 387.443 188.352 394.114 179.735C396.148 181.288 398.882 183.417 401.696 185.626C404.737 188.003 407.871 190.475 410.314 192.392Z" fill="#FBD22E"/>
<path d="M408.22 296.436C408.22 296.436 407.146 316.312 405.803 320.072C404.46 323.833 397.208 323.027 392.91 320.072C388.613 317.118 331.383 255.726 331.383 255.726L340.065 252.723C346.914 257.961 375.989 268.234 385.39 281.127L408.22 296.436" fill="#EC8963"/>
<path d="M386.56 236.821L416.009 229.02C416.009 229.02 411.175 280.321 410.369 289.99L408.757 301.002L385.121 280.858C385.121 280.858 380.555 262.594 380.018 254.536C379.481 246.479 386.56 236.821 386.56 236.821Z" fill="#FBD22E"/>
<path d="M321.204 246.161L344.79 247.343C344.79 247.343 345.792 255.37 344.699 255.745C340.065 252.32 336.142 252.606 332.7 256.948C332.7 256.948 321.407 250.685 319.081 249.923C316.754 249.162 316.691 246.15 316.691 246.15L321.204 246.161Z" fill="#ED156A"/>
<path d="M317.16 248.107C316.712 247.126 316.691 246.15 316.691 246.15L321.204 246.161L344.79 247.343C344.79 247.343 344.799 248.228 344.786 249.493L317.16 248.107" fill="#FBD22E"/>
<path d="M588.908 339.189C588.908 339.189 584.567 378.991 584.928 381.524C600.487 382.61 597.593 382.248 597.593 382.248L607 342.446L588.908 339.189" fill="#F9AAB8"/>
<path d="M586.204 364.542C586.204 364.542 599.05 349.246 606.225 347.783C595.452 343.328 590.556 343.872 590.556 343.872L587.253 346.621L586.204 364.542" fill="#F18B9A"/>
<path d="M620.604 388.792C620.604 388.789 620.603 388.788 620.603 388.784C620.6 388.751 620.594 388.703 620.586 388.642C620.585 388.633 620.583 388.624 620.582 388.615C620.574 388.554 620.563 388.486 620.55 388.406C620.547 388.393 620.545 388.378 620.542 388.364C620.528 388.282 620.51 388.193 620.489 388.096C620.485 388.08 620.483 388.065 620.479 388.048C620.456 387.945 620.429 387.835 620.398 387.718C620.394 387.705 620.391 387.694 620.388 387.682C620.058 386.476 619.252 384.697 617.306 384.166C614.276 383.339 599.409 376.044 599.409 376.044C595.279 381.825 588.671 379.348 585.093 374.942C584.112 375.334 584.249 382.357 584.409 386.368C584.409 386.37 584.409 386.372 584.409 386.374C584.449 387.378 584.49 388.188 584.516 388.661C584.517 388.675 584.518 388.686 584.518 388.699C584.522 388.77 584.526 388.833 584.528 388.887C584.529 388.905 584.53 388.922 584.531 388.939C584.538 389.055 584.542 389.121 584.542 389.121H614.827L620.609 388.846C620.609 388.846 620.608 388.825 620.604 388.792" fill="#252B6B"/>
<path d="M584.845 386.39C584.653 386.39 584.493 386.24 584.483 386.046C584.473 385.846 584.627 385.676 584.826 385.666C594.081 385.195 618.32 384.853 618.564 384.85C618.565 384.85 618.568 384.85 618.569 384.85C618.767 384.85 618.929 385.009 618.931 385.207C618.934 385.407 618.774 385.571 618.573 385.574C618.33 385.578 594.104 385.919 584.863 386.389C584.857 386.39 584.851 386.39 584.845 386.39Z" fill="white"/>
<path d="M599.599 380.883C599.499 380.883 599.399 380.841 599.327 380.76C599.195 380.611 599.209 380.381 599.359 380.249L602.827 377.189C602.977 377.056 603.205 377.072 603.338 377.221C603.47 377.371 603.456 377.6 603.306 377.732L599.839 380.792C599.77 380.853 599.685 380.883 599.599 380.883" fill="white"/>
<path d="M602.251 382.106C602.15 382.106 602.05 382.064 601.979 381.984C601.847 381.834 601.861 381.604 602.011 381.472L605.478 378.413C605.63 378.281 605.858 378.296 605.99 378.445C606.122 378.595 606.108 378.824 605.958 378.957L602.491 382.016C602.422 382.076 602.336 382.106 602.251 382.106" fill="white"/>
<path d="M605.106 383.126C605.006 383.126 604.906 383.084 604.834 383.004C604.702 382.854 604.716 382.624 604.866 382.492L608.335 379.433C608.485 379.301 608.713 379.315 608.846 379.464C608.978 379.614 608.964 379.844 608.814 379.975L605.346 383.035C605.277 383.097 605.192 383.126 605.106 383.126" fill="white"/>
<path d="M572.926 260.771L615.431 298.627C617.11 299.918 617.77 302.141 617.067 304.138L606.225 349.054L587.253 347.891C587.253 347.891 585.317 326.596 588.802 314.206C557.051 299.105 549.625 293.468 549.625 293.468L558.213 253.802L572.926 260.771" fill="#ED156A"/>
<path d="M567.166 277.966L551.664 294.693C556.355 297.546 568.058 304.34 588.802 314.206C585.317 326.596 587.253 347.892 587.253 347.892L597.339 348.51C598.449 339.367 601.707 313.969 604.29 308.156C605.922 304.484 567.166 277.966 567.166 277.966" fill="#D2176A"/>
<path d="M509.645 335.472L479.201 372.942L469.054 371.966C469.054 371.966 481.348 336.839 491.3 326.105L509.645 335.472Z" fill="#F9AAB8"/>
<path d="M485.575 334.061C485.575 334.061 494.551 349.767 494.007 354.118C505.429 340.792 509.644 335.472 509.644 335.472L485.575 334.061Z" fill="#F18B9A"/>
<path d="M480.858 370.919C478.16 374.051 470.603 372.861 469.843 369.859C469.839 369.866 469.836 369.882 469.832 369.888C469.448 370.536 457.637 385.725 458.933 386.11C459.799 386.362 467.608 386.632 473.806 386.14C474.142 386.116 474.49 386.08 474.839 386.044C476.405 386.044 481.938 385.629 482.659 383.876C482.806 383.518 482.8 383.119 482.792 382.732C482.765 381.469 482.738 380.206 482.712 378.942C482.648 375.953 482.574 372.901 481.56 370.087C481.434 370.405 481.124 370.609 480.858 370.919" fill="#252B6B"/>
<path d="M475.584 374.489C475.563 374.489 475.54 374.487 475.517 374.484L466.414 373.09C466.175 373.053 466.011 372.831 466.048 372.593C466.084 372.354 466.303 372.191 466.546 372.226L475.65 373.62C475.889 373.657 476.052 373.88 476.016 374.118C475.982 374.335 475.796 374.489 475.584 374.489" fill="white"/>
<path d="M474.272 377.442C474.25 377.442 474.228 377.441 474.205 377.437L465.101 376.043C464.862 376.005 464.699 375.783 464.735 375.544C464.771 375.306 464.991 375.139 465.233 375.178L474.338 376.573C474.576 376.61 474.74 376.832 474.703 377.072C474.67 377.288 474.484 377.442 474.272 377.442Z" fill="white"/>
<path d="M472.96 380.395C472.938 380.395 472.916 380.393 472.894 380.389L463.788 378.995C463.55 378.959 463.386 378.735 463.423 378.497C463.459 378.259 463.675 378.097 463.921 378.132L473.026 379.527C473.264 379.562 473.428 379.786 473.392 380.025C473.359 380.241 473.172 380.395 472.96 380.395" fill="white"/>
<path d="M465.765 383.998C462.675 383.998 460.428 383.83 460.39 383.828C460.142 383.808 459.956 383.584 459.974 383.327C459.993 383.07 460.197 382.869 460.456 382.895C460.525 382.901 467.337 383.41 473.559 382.636C478.266 382.05 482.299 380.57 482.339 380.555C482.571 380.469 482.831 380.595 482.914 380.838C482.999 381.081 482.876 381.348 482.642 381.435C482.601 381.45 478.473 382.965 473.667 383.562C470.943 383.902 468.111 383.998 465.765 383.998Z" fill="white"/>
<path d="M535.367 253.027C535.367 252.253 517.396 269.807 504.466 306.334C504.466 306.334 490.994 322.071 485.575 334.061C506.177 339.364 507.814 339.353 507.814 339.353L561.456 284.494L558.213 253.802L535.367 253.027" fill="#ED156A"/>
<path d="M574.863 247.607L572.926 260.772L535.367 253.028L540.401 241.024L574.863 247.607" fill="#F9AAB8"/>
<path d="M540.402 241.024L538.881 245.602C538.881 245.602 558.243 254.554 566.001 259.344L572.927 260.772L574.863 247.607L540.402 241.024" fill="#F18B9A"/>
<path d="M573.516 216.982L595.363 198.782L576.589 179.812L586.323 174.346C586.323 174.346 599.481 182.301 608.726 191.043C617.971 199.786 610.69 208.013 605.873 212.57C599.807 218.311 579.442 238.079 579.442 238.079L573.516 216.982" fill="#F9AAB8"/>
<path d="M578.912 182.121L584.556 179.362C584.556 179.362 596.096 195.904 595.363 198.782C586.669 188.866 578.912 182.121 578.912 182.121Z" fill="#F18B9A"/>
<path d="M576.83 180.129C576.137 179.469 575.444 178.809 574.752 178.148C574.33 177.747 573.896 177.326 573.684 176.791C573.473 176.255 573.561 175.572 574.033 175.298C573.422 174.845 573.072 174.052 573.162 173.327C573.253 172.601 573.78 171.976 574.473 171.772C574.799 171.676 575.16 171.666 575.46 171.51C575.797 171.333 576.021 170.991 576.363 170.825C576.954 170.539 577.71 170.849 578.351 170.679C578.649 170.601 578.903 170.422 579.175 170.282C579.704 170.009 580.315 169.882 580.927 169.916C582.754 170.016 584.281 171.453 585.611 172.797C586.477 173.671 587.342 174.544 588.208 175.418C588.474 175.687 588.741 175.956 589.02 176.213L581.771 180.252L576.83 180.129" fill="#F9AAB8"/>
<path d="M580.485 176.785C580.489 176.781 580.494 176.776 580.498 176.771C580.607 176.653 580.599 176.469 580.48 176.359C579.917 175.843 578.814 175.836 578.011 175.916L578.184 175.75C578.419 175.526 578.528 175.278 578.507 175.012C578.471 174.521 578.009 174.133 577.516 173.787C576.822 173.3 574.74 174.509 573.877 175.051C573.745 175.135 573.7 175.317 573.786 175.454C573.871 175.591 574.052 175.631 574.189 175.545C575.508 174.717 576.933 174.106 577.18 174.265C577.359 174.39 577.905 174.772 577.926 175.056C577.928 175.087 577.936 175.181 577.782 175.327L576.182 176.853L577.2 176.63C577.809 176.497 579.514 176.266 580.086 176.789C580.2 176.893 580.374 176.891 580.485 176.785" fill="#1C1B1B"/>
<path d="M576.411 174.313C576.518 174.21 576.532 174.042 576.44 173.923C576.019 173.382 575.352 171.759 575.345 171.743C575.284 171.594 575.113 171.523 574.965 171.583C574.816 171.644 574.744 171.815 574.805 171.964C574.834 172.034 575.509 173.678 575.979 174.281C576.078 174.408 576.262 174.431 576.389 174.332C576.397 174.326 576.405 174.319 576.411 174.313" fill="#1C1B1B"/>
<path d="M579.405 175.913C579.9 175.44 579.989 174.724 579.63 173.904C579.288 173.125 578.147 170.804 578.098 170.706C578.028 170.561 577.853 170.501 577.708 170.573C577.564 170.644 577.504 170.819 577.576 170.963C577.587 170.987 578.759 173.37 579.095 174.139C579.322 174.657 579.437 175.347 578.675 175.707C578.532 175.776 578.467 175.949 578.535 176.095C578.604 176.241 578.778 176.304 578.924 176.235C579.112 176.146 579.273 176.038 579.405 175.913" fill="#1C1B1B"/>
<path d="M581.739 175.073C582.049 174.777 582.256 174.43 582.287 174.057C582.364 173.128 580.703 170.52 580.37 170.007C580.283 169.872 580.101 169.833 579.967 169.921C579.828 170.011 579.793 170.19 579.881 170.324C580.611 171.449 581.752 173.443 581.706 174.009C581.651 174.681 580.447 175.413 579.367 175.436C579.207 175.438 579.078 175.572 579.082 175.732C579.085 175.893 579.218 176.022 579.379 176.018C580.209 176.002 581.157 175.628 581.739 175.073" fill="#1C1B1B"/>
<path d="M577.501 229.284L577.426 230.901L579.442 238.079C579.442 238.079 599.807 218.311 605.873 212.57C607.302 211.218 608.946 209.541 610.313 207.625C610.446 207.226 610.572 206.829 610.682 206.438C598.987 203.447 577.501 229.284 577.501 229.284" fill="#F18B9A"/>
<path d="M543.577 268.863C542.39 267.694 541.245 266.48 540.087 265.269C534.497 259.423 528.907 253.577 523.317 247.731C526.236 245.383 529.154 243.035 532.073 240.688C534.426 238.795 536.786 236.911 539.131 235.01C541.206 233.328 543.893 232.163 545.381 229.888C545.482 229.734 545.577 229.579 545.669 229.422C546.54 227.938 547.077 226.275 547.615 224.636C548.989 220.444 550.423 216.266 552.182 212.221C534.713 208.579 524.216 223.093 512.843 233.49C507.853 238.052 500.287 246.312 509.558 255.387C518.83 264.461 532.104 272.8 532.104 272.8C532.879 273.671 533.654 274.542 534.428 275.413C534.641 275.651 534.858 275.899 534.954 276.204C535.05 276.51 535.013 276.841 534.975 277.16C534.851 278.19 534.728 279.22 534.605 280.249C534.55 280.711 534.496 281.191 534.639 281.634C534.783 282.076 535.183 282.473 535.649 282.453C536.277 282.427 536.631 281.735 536.837 281.141C537.484 279.272 537.975 277.35 538.305 275.401C538.364 277.135 538.424 278.87 538.483 280.605C538.501 281.142 538.561 281.76 539 282.07C539.441 282.381 540.089 282.209 540.466 281.823C540.843 281.438 541.009 280.897 541.137 280.373C541.602 278.464 541.724 276.472 541.498 274.521C541.891 276.216 542.369 277.892 542.932 279.539C543.134 280.132 543.54 280.845 544.159 280.747C544.423 280.704 544.641 280.509 544.783 280.283C545.127 279.735 545.087 279.039 545.031 278.394C544.911 277.001 544.294 274.787 544.602 273.459C545.201 273.706 545.777 274.042 546.355 274.347C546.698 274.528 547.051 274.712 547.436 274.759C547.821 274.807 548.251 274.687 548.47 274.368C548.704 274.026 548.636 273.547 548.417 273.195C548.199 272.844 547.857 272.591 547.528 272.34C546.119 271.269 544.824 270.091 543.577 268.863" fill="#F9AAB8"/>
<path d="M523.317 247.731L517.94 240.978C517.94 240.978 537.522 221.669 545.68 224.66C543.505 233.635 543.505 233.635 543.505 233.635L539.131 235.01L523.317 247.731Z" fill="#F18B9A"/>
<path d="M569.511 213.211L575.471 214.822C575.471 214.822 579.361 231.356 580.813 237.439C575.79 251.479 575.79 251.479 575.79 251.479L536.415 244.704L548.97 210.929L556.312 210.984L569.511 213.211" fill="#ED156A"/>
<path d="M569.511 213.211L565.026 212.454L563.903 215.957C563.903 215.957 563.512 233.398 557.07 248.259L575.79 251.479C575.79 251.479 575.79 251.479 580.813 237.439C579.361 231.356 575.471 214.822 575.471 214.822L569.511 213.211" fill="#D2176A"/>
<path d="M557.899 183.724C559.851 184.586 561.676 185.927 563.378 187.21C564.652 188.17 566.415 189.399 565.925 191.249C565.458 193.008 563.32 194.001 561.651 194.061C559.907 194.123 558.162 193.337 556.455 194.004C554.52 194.761 552.936 196.214 551.397 197.565C549.232 199.46 547.108 201.397 544.985 203.34C538.52 209.268 527.545 215.546 526.52 215.05C525.495 214.548 525.298 213.079 521.624 205.945C521.563 205.833 521.51 205.721 521.456 205.609C518.044 198.707 521.07 195.32 526.596 192.303C532.215 189.241 532.313 198.126 535.787 196.131C539.261 194.137 544.711 179.22 548.418 179.265C549.863 179.283 551.307 180.443 552.621 180.997C554.454 181.77 556.092 182.925 557.899 183.724" fill="#1C1B1B"/>
<path d="M562.603 185.879C563.029 187.678 561.916 189.48 560.117 189.905C558.319 190.331 556.516 189.218 556.09 187.42C555.666 185.621 556.779 183.819 558.577 183.393C560.375 182.969 562.178 184.081 562.603 185.879Z" fill="#ED156A"/>
<path d="M570.393 202.868C570.393 202.868 570.393 202.868 570.393 202.875C570.401 202.896 570.393 203.24 570.381 203.818C570.375 204.015 570.37 204.232 570.354 204.472C570.347 204.487 570.347 204.487 570.347 204.487C570.33 205.177 570.292 206.058 570.236 207.074C570.171 208.343 570.096 209.831 569.992 211.419C569.979 211.609 569.965 211.8 569.952 211.998L569.953 212.005C569.839 213.734 570.015 216.712 569.776 218.285C567.481 220.584 564.471 220.729 561.972 220.196C559.252 219.617 556.885 217.774 556.055 214.703C556.129 214.662 556.168 214.624 556.181 214.609L558.741 208.865L559.014 208.12L560.218 204.84L561.705 200.764L570.393 202.868Z" fill="#F9AAB8"/>
<path d="M570.393 202.868C570.393 202.868 570.393 202.868 570.393 202.875C570.401 202.896 570.393 203.24 570.381 203.818C570.375 204.015 570.37 204.232 570.354 204.472C570.348 204.487 570.348 204.487 570.348 204.487C570.33 205.177 570.292 206.058 570.237 207.074C570.171 208.343 570.096 209.831 569.992 211.419C568.502 211.779 566.926 211.829 565.323 211.53C562.837 211.073 560.67 209.841 559.014 208.12L560.218 204.84L561.705 200.764L570.393 202.868" fill="#F18B9A"/>
<path d="M576.171 188.987C576.308 189.563 576.387 190.147 576.409 190.716C576.442 191.502 576.367 192.273 576.206 193.019C576.085 193.569 575.915 194.106 575.699 194.62L575.584 195.222L575.471 195.837L575.09 197.944C574.982 198.552 574.808 199.128 574.581 199.678C574.517 199.852 574.444 200.021 574.351 200.188C572.694 203.635 568.883 205.694 564.929 204.97L564.598 204.909C560.638 204.186 557.797 200.897 557.467 197.068C557.447 196.901 557.44 196.73 557.432 196.56C557.417 195.962 557.465 195.356 557.573 194.748L557.958 192.661L558.059 192.081L558.071 192.019L558.078 191.964L558.26 190.975C558.271 189.928 558.467 188.917 558.811 187.962C559.234 186.817 559.879 185.766 560.712 184.874C561.228 184.316 561.814 183.827 562.463 183.415C562.705 183.265 562.955 183.121 563.214 182.986C563.846 182.665 564.527 182.412 565.247 182.241C566.9 181.851 568.546 181.937 570.048 182.415C570.576 182.574 571.081 182.786 571.558 183.043C571.68 183.107 571.794 183.172 571.909 183.238C572.01 183.3 572.109 183.356 572.204 183.419C572.412 183.548 572.618 183.691 572.813 183.844C572.948 183.938 573.071 184.04 573.196 184.15C573.54 184.432 573.859 184.747 574.15 185.081C574.264 185.2 574.367 185.328 574.462 185.45C575.263 186.458 575.856 187.653 576.171 188.987" fill="#F9AAB8"/>
<path d="M576.754 189.748C576.842 190.359 576.866 190.972 576.829 191.568C576.781 192.387 576.615 193.184 576.357 193.946C576.35 193.947 576.335 193.943 576.327 193.937C574.962 193.415 573.763 192.551 572.798 191.504C571.945 190.583 570.91 189.201 570.728 187.939C570.58 187.465 570.466 186.974 570.394 186.469C570.191 185.061 570.316 183.681 570.715 182.396C571.279 182.607 571.814 182.869 572.312 183.176C572.438 183.253 572.558 183.331 572.677 183.409C572.781 183.481 572.884 183.548 572.982 183.623C573.198 183.774 573.409 183.94 573.607 184.115C573.746 184.224 573.871 184.341 573.997 184.465C574.346 184.788 574.664 185.142 574.948 185.515C575.061 185.647 575.16 185.789 575.252 185.925C576.026 187.041 576.55 188.334 576.754 189.748" fill="#1C1B1B"/>
<path d="M572.122 183.063C572.064 184.812 571.555 186.479 570.695 187.913C569.232 190.363 566.747 192.142 563.752 192.574C562.039 192.821 560.271 192.597 558.668 191.919C558.18 191.719 557.739 191.512 557.376 191.197L557.653 190.166C557.757 189.056 558.05 188.002 558.49 187.023C559.029 185.85 559.789 184.798 560.732 183.934C560.825 183.879 560.915 183.804 561.006 183.729C561.521 183.274 562.072 182.882 562.673 182.559C562.938 182.424 563.209 182.295 563.489 182.179C564.171 181.9 564.898 181.698 565.659 181.589C567.405 181.337 569.103 181.592 570.614 182.247C571.145 182.469 571.651 182.743 572.122 183.063" fill="#393137"/>
<path d="M549.061 179.326C548.691 183.929 546.728 190.507 540.248 198.43C534.009 206.05 527.002 206.831 521.456 205.609C518.044 198.707 521.07 195.32 526.596 192.303C532.215 189.241 532.313 198.126 535.787 196.131C539.261 194.137 544.711 179.22 548.418 179.265C548.638 179.268 548.852 179.284 549.061 179.326" fill="#393137"/>
<defs>
<linearGradient id="paint0_linear_55:4" x1="74.7248" y1="261.792" x2="74.7248" y2="340.371" gradientUnits="userSpaceOnUse">
<stop stop-color="#3BAD89"/>
<stop offset="1" stop-color="#2B7663"/>
</linearGradient>
<linearGradient id="paint1_linear_55:4" x1="87.1651" y1="262.882" x2="87.1651" y2="340.129" gradientUnits="userSpaceOnUse">
<stop stop-color="#3BAD89"/>
<stop offset="1" stop-color="#2B7663"/>
</linearGradient>
<linearGradient id="paint2_linear_55:4" x1="62.6229" y1="300.487" x2="86.0072" y2="300.487" gradientUnits="userSpaceOnUse">
<stop stop-color="#739289"/>
<stop offset="1" stop-color="#789A90"/>
</linearGradient>
<linearGradient id="paint3_linear_55:4" x1="55.726" y1="263.067" x2="55.726" y2="340.314" gradientUnits="userSpaceOnUse">
<stop stop-color="#3BAD89"/>
<stop offset="1" stop-color="#2B7663"/>
</linearGradient>
<linearGradient id="paint4_linear_55:4" x1="79.2958" y1="262.882" x2="79.2958" y2="340.129" gradientUnits="userSpaceOnUse">
<stop stop-color="#3BAD89"/>
<stop offset="1" stop-color="#2B7663"/>
</linearGradient>
<linearGradient id="paint5_linear_55:4" x1="100.792" y1="262.881" x2="100.792" y2="340.128" gradientUnits="userSpaceOnUse">
<stop stop-color="#3BAD89"/>
<stop offset="1" stop-color="#2B7663"/>
</linearGradient>
<linearGradient id="paint6_linear_55:4" x1="94.8342" y1="262.881" x2="94.8342" y2="340.128" gradientUnits="userSpaceOnUse">
<stop stop-color="#3BAD89"/>
<stop offset="1" stop-color="#2B7663"/>
</linearGradient>
<linearGradient id="paint7_linear_55:4" x1="92.0646" y1="291.642" x2="106.855" y2="291.642" gradientUnits="userSpaceOnUse">
<stop stop-color="#225D4D"/>
<stop offset="1" stop-color="#2B7663"/>
</linearGradient>
<linearGradient id="paint8_linear_55:4" x1="106.855" y1="265.019" x2="106.916" y2="265.019" gradientUnits="userSpaceOnUse">
<stop stop-color="#225D4D"/>
<stop offset="1" stop-color="#2B7663"/>
</linearGradient>
<linearGradient id="paint9_linear_55:4" x1="122.153" y1="262.882" x2="122.153" y2="340.129" gradientUnits="userSpaceOnUse">
<stop stop-color="#3BAD89"/>
<stop offset="1" stop-color="#2B7663"/>
</linearGradient>
<linearGradient id="paint10_linear_55:4" x1="103.575" y1="262.882" x2="103.575" y2="340.128" gradientUnits="userSpaceOnUse">
<stop stop-color="#3BAD89"/>
<stop offset="1" stop-color="#2B7663"/>
</linearGradient>
<linearGradient id="paint11_linear_55:4" x1="103.539" y1="316.785" x2="140.805" y2="316.785" gradientUnits="userSpaceOnUse">
<stop stop-color="#225D4D"/>
<stop offset="1" stop-color="#2B7663"/>
</linearGradient>
<linearGradient id="paint12_linear_55:4" x1="77.8468" y1="364.585" x2="119.356" y2="364.585" gradientUnits="userSpaceOnUse">
<stop stop-color="#F79510"/>
<stop offset="1" stop-color="#EA431E"/>
</linearGradient>
</defs>
</svg>
