<svg width="277" height="127" viewBox="0 0 277 127" fill="none" xmlns="http://www.w3.org/2000/svg">
<path d="M72.768 64.496C72.768 69.424 71.904 74.032 70.176 78.32C68.512 82.544 66.176 86.192 63.168 89.264C60.224 92.272 56.672 94.672 52.512 96.464C48.352 98.192 43.872 99.056 39.072 99.056C34.08 99.056 29.408 98.16 25.056 96.368C20.704 94.576 16.928 92.144 13.728 89.072C10.592 85.936 8.096 82.256 6.24 78.032C4.384 73.808 3.456 69.264 3.456 64.4C3.456 59.536 4.352 54.992 6.144 50.768C8 46.544 10.496 42.896 13.632 39.824C16.832 36.688 20.608 34.224 24.96 32.432C29.312 30.64 33.952 29.744 38.88 29.744C44.448 29.744 49.696 30.864 54.624 33.104C59.552 35.344 63.616 38.416 66.816 42.32L57.12 51.248C54.752 48.432 52 46.288 48.864 44.816C45.792 43.28 42.464 42.512 38.88 42.512C35.872 42.512 33.056 43.088 30.432 44.24C27.872 45.328 25.632 46.864 23.712 48.848C21.856 50.768 20.384 53.072 19.296 55.76C18.272 58.384 17.76 61.264 17.76 64.4C17.76 67.536 18.304 70.448 19.392 73.136C20.48 75.824 21.984 78.16 23.904 80.144C25.824 82.064 28.096 83.6 30.72 84.752C33.408 85.84 36.256 86.384 39.264 86.384C44 86.384 48.064 85.072 51.456 82.448C54.912 79.824 57.056 76.464 57.888 72.368H38.016V60.272H72.768V64.496Z" fill="#FF00D6"/>
<path d="M94.1708 47.984V77.072C94.1708 80.272 95.0988 82.832 96.9548 84.752C98.8748 86.672 101.403 87.632 104.539 87.632C106.779 87.632 108.763 87.216 110.491 86.384C112.283 85.488 113.755 84.24 114.907 82.64V47.984H128.059V98H114.907V93.968C112.987 95.568 110.843 96.816 108.475 97.712C106.107 98.544 103.547 98.96 100.795 98.96C95.0348 98.96 90.2988 97.104 86.5868 93.392C82.8748 89.616 81.0188 84.816 81.0188 78.992V47.984H94.1708Z" fill="#6C8DD0"/>
<path d="M144.837 42.032C142.789 42.032 141.029 41.296 139.557 39.824C138.085 38.352 137.349 36.592 137.349 34.544C137.349 32.496 138.085 30.736 139.557 29.264C141.029 27.792 142.789 27.056 144.837 27.056C146.885 27.056 148.645 27.792 150.117 29.264C151.589 30.736 152.325 32.496 152.325 34.544C152.325 36.592 151.589 38.352 150.117 39.824C148.645 41.296 146.885 42.032 144.837 42.032ZM151.461 47.984V98H138.309V47.984H151.461Z" fill="#298E3E"/>
<path d="M199.091 98V93.872C197.107 95.472 194.899 96.688 192.467 97.52C190.035 98.288 187.507 98.672 184.883 98.672C181.363 98.672 178.035 98 174.899 96.656C171.827 95.312 169.139 93.488 166.835 91.184C164.531 88.88 162.707 86.16 161.363 83.024C160.083 79.888 159.443 76.528 159.443 72.944C159.443 69.36 160.115 66 161.459 62.864C162.803 59.728 164.627 57.008 166.931 54.704C169.235 52.4 171.955 50.608 175.091 49.328C178.291 47.984 181.683 47.312 185.267 47.312C187.699 47.312 190.067 47.664 192.371 48.368C194.739 49.008 196.915 49.968 198.899 51.248V30.8L212.051 27.92V98H199.091ZM172.403 72.944C172.403 76.976 173.811 80.4 176.627 83.216C179.443 86.032 182.899 87.44 186.995 87.44C189.427 87.44 191.635 87.024 193.619 86.192C195.667 85.36 197.427 84.176 198.899 82.64V63.152C197.491 61.68 195.731 60.528 193.619 59.696C191.571 58.864 189.363 58.448 186.995 58.448C182.835 58.448 179.347 59.856 176.531 62.672C173.779 65.424 172.403 68.848 172.403 72.944Z" fill="#FAB819"/>
<path d="M220.099 73.04C220.099 69.392 220.771 66 222.115 62.864C223.523 59.664 225.411 56.912 227.779 54.608C230.211 52.24 233.059 50.384 236.323 49.04C239.587 47.696 243.075 47.024 246.787 47.024C250.499 47.024 253.987 47.696 257.251 49.04C260.515 50.384 263.331 52.24 265.699 54.608C268.131 56.912 270.019 59.664 271.363 62.864C272.771 66 273.475 69.392 273.475 73.04C273.475 76.688 272.771 80.112 271.363 83.312C270.019 86.448 268.131 89.168 265.699 91.472C263.331 93.776 260.515 95.6 257.251 96.944C253.987 98.288 250.499 98.96 246.787 98.96C243.075 98.96 239.587 98.288 236.323 96.944C233.059 95.6 230.211 93.776 227.779 91.472C225.411 89.168 223.523 86.448 222.115 83.312C220.771 80.112 220.099 76.688 220.099 73.04ZM246.787 87.536C250.627 87.536 253.891 86.128 256.579 83.312C259.267 80.496 260.611 77.072 260.611 73.04C260.611 68.944 259.267 65.488 256.579 62.672C253.891 59.856 250.627 58.448 246.787 58.448C242.947 58.448 239.683 59.856 236.995 62.672C234.307 65.488 232.963 68.944 232.963 73.04C232.963 77.072 234.307 80.496 236.995 83.312C239.683 86.128 242.947 87.536 246.787 87.536Z" fill="#393137"/>
</svg>
