<svg width="355" height="355" viewBox="0 0 355 355" fill="none" xmlns="http://www.w3.org/2000/svg">
<rect width="355" height="355" rx="72" fill="white"/>
<path fill-rule="evenodd" clip-rule="evenodd" d="M296.995 215.455C288.856 240.611 272.995 262.533 251.687 278.08C230.378 293.626 204.715 302 178.376 302L178.376 244.367C192.595 244.367 206.45 239.846 217.953 231.453C229.456 223.06 238.019 211.226 242.413 197.646L296.995 215.455Z" fill="#FAB819"/>
<path fill-rule="evenodd" clip-rule="evenodd" d="M296.918 138.473C305.027 163.558 305.027 190.579 296.918 215.664L242.535 197.904C246.913 184.362 246.913 169.775 242.535 156.233C238.157 142.69 229.626 130.889 218.165 122.52L251.775 76.024C273.006 91.5273 288.809 113.388 296.918 138.473Z" fill="#313131"/>
<path fill-rule="evenodd" clip-rule="evenodd" d="M178 51.9999C204.299 51.9999 229.922 60.3762 251.198 75.9284L217.516 122.571C206.03 114.175 192.197 109.653 178 109.653C163.803 109.653 149.97 114.175 138.484 122.571L104.802 75.9284C126.078 60.3762 151.701 51.9999 178 51.9999Z" fill="#FF00D6"/>
<path fill-rule="evenodd" clip-rule="evenodd" d="M59.1362 138.473C67.3173 113.388 83.2596 91.5273 104.678 76.024L138.586 122.52C127.023 130.889 118.417 142.69 114 156.233C109.584 169.775 109.584 184.362 114 197.904L59.1361 215.664C50.955 190.579 50.955 163.558 59.1362 138.473Z" fill="#6C8DD0"/>
<path fill-rule="evenodd" clip-rule="evenodd" d="M178.377 302C152.038 302 126.375 293.626 105.067 278.08C83.7579 262.533 67.8974 240.611 59.7582 215.455L114.341 197.646C118.735 211.226 127.297 223.06 138.8 231.453C150.304 239.846 164.158 244.367 178.377 244.367L178.377 302Z" fill="#298E3E"/>
</svg>
