<svg width="100" height="100" viewBox="0 0 100 100" fill="none" xmlns="http://www.w3.org/2000/svg">
<g clip-path="url(#clip0_20:211)">
<path d="M49.9992 89.2877C28.1627 89.2877 10.2965 71.0412 10.2965 48.7401V35.2244H89.7026V48.7401C89.7026 71.041 71.8359 89.2877 49.9992 89.2877Z" fill="#CAEEC5"/>
<path d="M47.0027 77.6078C43.8506 79.4666 39.7834 78.3541 37.9629 75.1346L35.218 70.2779C33.6936 67.5814 34.2121 64.2295 36.2734 62.1195C36.2191 62.0502 36.1684 61.9771 36.1238 61.898L8.78008 13.2184C8.30957 12.3811 8.60723 11.3207 9.44473 10.8504C10.282 10.3799 11.3424 10.6775 11.8127 11.515L39.1565 60.1945C39.1893 60.2529 39.2174 60.3125 39.2428 60.3729C42.0602 59.61 45.1557 60.8264 46.6789 63.5201L49.425 68.3766C51.2445 71.5955 50.1539 75.7496 47.0027 77.6078Z" fill="#5B5B5B"/>
<path d="M10.5057 52.8953V48.0137C30.3262 64.0217 47.6088 39.5652 62.6898 48.116C73.9785 54.5166 84.674 55.326 89.7027 48.0139L89.7031 48.0201V48.74C89.7031 71.0412 71.8363 89.2877 49.9998 89.2877C29.5363 89.2877 12.5598 73.2637 10.5057 52.8953Z" fill="#FFD63E"/>
<path d="M91.9564 98.2609C91.9564 99.2213 91.1777 100 90.2174 100H9.78262C8.82227 100 8.04356 99.2213 8.04356 98.2609C8.04356 97.3006 8.82227 96.5219 9.78262 96.5219H90.2174C91.1779 96.5217 91.9564 97.3004 91.9564 98.2609Z" fill="#9E9D9D"/>
<path d="M84.2684 35.2244H89.7031V48.7401C89.7031 71.0412 71.8363 89.2877 49.9998 89.2877C28.1633 89.2877 10.2969 71.041 10.2969 48.7401V35.2244H15.7316V48.7401C15.7316 68.1014 31.1043 83.8529 49.9996 83.8529C68.8953 83.8529 84.2682 68.1014 84.2682 48.7401L84.2684 35.2244Z" fill="#97BAA8"/>
<path d="M57.8459 61.1918H57.4672C56.5068 61.1918 55.7281 60.4131 55.7281 59.4528C55.7281 58.4924 56.5068 57.7137 57.4672 57.7137H57.8459C58.8063 57.7137 59.585 58.4924 59.585 59.4528C59.585 60.4131 58.8063 61.1918 57.8459 61.1918ZM71.7807 65.1576H71.402C70.4416 65.1576 69.6629 65.9363 69.6629 66.8967C69.6629 67.857 70.4416 68.6358 71.402 68.6358H71.7807C72.741 68.6358 73.5197 67.857 73.5197 66.8967C73.5197 65.9363 72.741 65.1576 71.7807 65.1576ZM60.9506 75.2647H60.5731C59.6127 75.2647 58.834 76.0434 58.834 77.0037C58.834 77.9641 59.6127 78.7428 60.5731 78.7428H60.9506C61.9109 78.7428 62.6897 77.9641 62.6897 77.0037C62.6897 76.0434 61.9113 75.2647 60.9506 75.2647ZM23.8063 59.9H23.4275C22.4672 59.9 21.6885 60.6787 21.6885 61.6391C21.6885 62.5994 22.4672 63.3781 23.4275 63.3781H23.8063C24.7666 63.3781 25.5453 62.5994 25.5453 61.6391C25.5453 60.6787 24.7668 59.9 23.8063 59.9Z" fill="#B76700"/>
<path d="M46.6127 10.725C49.4197 15.0012 50.0334 22.6277 46.4266 26.7357C46.0826 27.1273 45.6021 27.3275 45.1189 27.3275C44.7115 27.3275 44.3023 27.1852 43.9723 26.8951C43.2506 26.2613 43.1793 25.1625 43.8129 24.4408C46.0607 21.8807 46.0086 16.1428 43.7053 12.634C41.6893 9.56407 40.8434 5.16094 41.551 1.41661C41.7295 0.472859 42.6389 -0.14804 43.5826 0.0306713C44.5266 0.208992 45.1469 1.11876 44.9686 2.06251C44.4281 4.92325 45.0887 8.4045 46.6127 10.725ZM56.3805 10.725C54.8563 8.40372 54.1957 4.92266 54.7365 2.0627C54.915 1.11895 54.2945 0.209187 53.3508 0.0306713C52.4064 -0.14804 51.4973 0.472468 51.3186 1.41641C50.6105 5.15997 51.4562 9.56309 53.4727 12.6344C55.7762 16.1422 55.8285 21.8801 53.5805 24.4414C52.9467 25.1633 53.0184 26.2621 53.7402 26.8957C54.0705 27.1855 54.4793 27.3279 54.8867 27.3279C55.3697 27.3279 55.8506 27.1277 56.1943 26.7359C59.8018 22.6266 59.1877 14.9998 56.3805 10.725Z" fill="#FFBB5E"/>
<path d="M21.1408 35.2244H25.1305L39.1562 60.1945C39.1891 60.2529 39.2172 60.3125 39.2426 60.3729C42.06 59.61 45.1555 60.8264 46.6787 63.5201L49.4248 68.3766C51.2443 71.5955 50.1537 75.7498 47.0025 77.608C43.8504 79.4668 39.7832 78.3543 37.9627 75.1348L35.2178 70.2779C33.6934 67.5815 34.2119 64.2295 36.2732 62.1195C36.2189 62.0502 36.1682 61.9772 36.1236 61.8981L21.1408 35.2244Z" fill="#5B7F81"/>
</g>
<defs>
<clipPath id="clip0_20:211">
<rect width="100" height="100" fill="white"/>
</clipPath>
</defs>
</svg>
