<svg width="38" height="38" viewBox="0 0 38 38" fill="none" xmlns="http://www.w3.org/2000/svg">
<path d="M10 0.8L9.99974 0.8C8.83332 0.801497 7.7151 1.26552 6.89031 2.09031C6.06552 2.9151 5.6015 4.03332 5.6 5.19974V5.2V8L5.2 8L5.19974 8C4.03332 8.0015 2.9151 8.46552 2.09031 9.29031C1.26552 10.1151 0.801497 11.2333 0.8 12.3997V12.4L0.8 26.8L0.8 26.8002C0.801316 27.8579 1.183 28.8798 1.87536 29.6794C2.52979 30.4351 3.42052 30.9446 4.4 31.1269V36.4C4.4 36.5428 4.43822 36.683 4.51071 36.806C4.58319 36.9291 4.68728 37.0305 4.81219 37.0997C4.93709 37.1689 5.07825 37.2035 5.221 37.1997C5.36375 37.196 5.5029 37.1541 5.624 37.0784L15.0296 31.2H28H28.0003C29.1667 31.1985 30.2849 30.7345 31.1097 29.9097C31.9345 29.0849 32.3985 27.9667 32.4 26.8003V26.8V24L32.8 24L32.8003 24C33.9667 23.9985 35.0849 23.5345 35.9097 22.7097C36.7345 21.8849 37.1985 20.7667 37.2 19.6003V19.6V5.2V5.19974C37.1985 4.03332 36.7345 2.9151 35.9097 2.09031C35.0849 1.26552 33.9667 0.801497 32.8003 0.8L32.8 1V0.8L10 0.8ZM14.376 29.7216L14.376 29.7216L6 34.9591V30.4C6 30.1878 5.91571 29.9843 5.76569 29.8343C5.61571 29.6843 5.41233 29.6001 5.20024 29.6C4.45784 29.5991 3.74611 29.3038 3.22115 28.7788C2.69624 28.2539 2.40094 27.5423 2.4 26.8V12.4C2.40094 11.6577 2.69624 10.9461 3.22115 10.4212C3.74611 9.8962 4.45784 9.60089 5.20024 9.6H27.9998C28.7422 9.60089 29.4539 9.8962 29.9788 10.4212C30.5038 10.9461 30.7991 11.6578 30.8 12.4002V26.7998C30.7991 27.5422 30.5038 28.2539 29.9788 28.7788C29.4539 29.3038 28.7422 29.5991 27.9998 29.6H14.8C14.6501 29.6 14.5031 29.6421 14.376 29.7216ZM32.4 22.4V12.4V12.3997C32.3985 11.2333 31.9345 10.1151 31.1097 9.29031C30.2849 8.46552 29.1667 8.0015 28.0003 8H28H7.2V5.20024C7.20089 4.45784 7.4962 3.74611 8.02115 3.22115C8.54606 2.69624 9.25772 2.40094 10 2.4H32.8C33.5423 2.40094 34.2539 2.69624 34.7788 3.22115C35.3038 3.74611 35.5991 4.45784 35.6 5.20024V19.5998C35.5991 20.3422 35.3038 21.0539 34.7788 21.5788C34.2539 22.1038 33.5422 22.3991 32.7998 22.4H32.4Z" fill="white" stroke="white" stroke-width="0.4"/>
<path d="M10.6 17.7998C10.244 17.7998 9.89603 17.9054 9.60002 18.1032C9.30402 18.3009 9.0733 18.5821 8.93707 18.911C8.80083 19.2399 8.76518 19.6018 8.83464 19.951C8.90409 20.3001 9.07552 20.6209 9.32726 20.8726C9.57899 21.1243 9.89972 21.2958 10.2489 21.3652C10.5981 21.4347 10.96 21.399 11.2889 21.2628C11.6178 21.1265 11.8989 20.8958 12.0967 20.5998C12.2945 20.3038 12.4 19.9558 12.4 19.5998C12.4 19.1224 12.2104 18.6646 11.8728 18.327C11.5353 17.9894 11.0774 17.7998 10.6 17.7998ZM10.6 20.1998C10.4814 20.1998 10.3654 20.1646 10.2667 20.0987C10.168 20.0328 10.0911 19.9391 10.0457 19.8294C10.0003 19.7198 9.98843 19.5991 10.0116 19.4828C10.0347 19.3664 10.0919 19.2595 10.1758 19.1755C10.2597 19.0916 10.3666 19.0345 10.483 19.0113C10.5994 18.9882 10.72 19.0001 10.8297 19.0455C10.9393 19.0909 11.033 19.1678 11.0989 19.2665C11.1649 19.3651 11.2 19.4811 11.2 19.5998C11.2 19.7589 11.1368 19.9115 11.0243 20.0241C10.9118 20.1366 10.7592 20.1998 10.6 20.1998Z" fill="white"/>
<path d="M16.6 17.7998C16.244 17.7998 15.896 17.9054 15.6 18.1032C15.304 18.3009 15.0733 18.5821 14.9371 18.911C14.8008 19.2399 14.7652 19.6018 14.8346 19.951C14.9041 20.3001 15.0755 20.6209 15.3273 20.8726C15.579 21.1243 15.8997 21.2958 16.2489 21.3652C16.5981 21.4347 16.96 21.399 17.2889 21.2628C17.6178 21.1265 17.8989 20.8958 18.0967 20.5998C18.2945 20.3038 18.4 19.9558 18.4 19.5998C18.4 19.1224 18.2104 18.6646 17.8728 18.327C17.5353 17.9894 17.0774 17.7998 16.6 17.7998V17.7998ZM16.6 20.1998C16.4814 20.1998 16.3654 20.1646 16.2667 20.0987C16.168 20.0328 16.0911 19.9391 16.0457 19.8294C16.0003 19.7198 15.9884 19.5991 16.0116 19.4828C16.0347 19.3664 16.0919 19.2595 16.1758 19.1755C16.2597 19.0916 16.3666 19.0345 16.483 19.0113C16.5994 18.9882 16.72 19.0001 16.8297 19.0455C16.9393 19.0909 17.033 19.1678 17.0989 19.2665C17.1649 19.3651 17.2 19.4811 17.2 19.5998C17.2 19.7589 17.1368 19.9115 17.0243 20.0241C16.9118 20.1366 16.7592 20.1998 16.6 20.1998Z" fill="white"/>
<path d="M22.6 17.7998C22.244 17.7998 21.896 17.9054 21.6 18.1032C21.304 18.3009 21.0733 18.5821 20.9371 18.911C20.8008 19.2399 20.7652 19.6018 20.8346 19.951C20.9041 20.3001 21.0755 20.6209 21.3273 20.8726C21.579 21.1243 21.8997 21.2958 22.2489 21.3652C22.5981 21.4347 22.96 21.399 23.2889 21.2628C23.6178 21.1265 23.8989 20.8958 24.0967 20.5998C24.2945 20.3038 24.4 19.9558 24.4 19.5998C24.4 19.1224 24.2104 18.6646 23.8728 18.327C23.5353 17.9894 23.0774 17.7998 22.6 17.7998ZM22.6 20.1998C22.4814 20.1998 22.3654 20.1646 22.2667 20.0987C22.168 20.0328 22.0911 19.9391 22.0457 19.8294C22.0003 19.7198 21.9884 19.5991 22.0116 19.4828C22.0347 19.3664 22.0919 19.2595 22.1758 19.1755C22.2597 19.0916 22.3666 19.0345 22.483 19.0113C22.5994 18.9882 22.72 19.0001 22.8297 19.0455C22.9393 19.0909 23.033 19.1678 23.0989 19.2665C23.1649 19.3651 23.2 19.4811 23.2 19.5998C23.2 19.7589 23.1368 19.9115 23.0243 20.0241C22.9118 20.1366 22.7592 20.1998 22.6 20.1998Z" fill="white"/>
</svg>
