<?xml version="1.0" encoding="utf-8"?>
<svg id="master-artboard" viewBox="0 0 1400 1400" version="1.1" xmlns="http://www.w3.org/2000/svg" x="0px" y="0px" width="1400px" height="1400px" enable-background="new 0 0 1400 1400" xmlns:xlink="http://www.w3.org/1999/xlink">
<g id="XMLID_380_" transform="matrix(0.9999999999999999, 0, 0, 0.9999999999999999, -2.842170943040401e-14, 0)">
		<defs>
			<path d="M 0 0 H 1400 V 1400 H 0 V 0 Z" id="XMLID_378_"/>
		</defs>
		<clipPath id="XMLID_3_">
			<use overflow="visible" xlink:href="#XMLID_378_"/>
		</clipPath>
		<g id="XMLID_376_" clip-path="url(#XMLID_3_)">
			<linearGradient id="XMLID_4_" gradientUnits="userSpaceOnUse" x1="700.0001" y1="-155" x2="700.0001" y2="950.9711">
				<stop offset="5.102041e-003" style="stop-color:#00688D"/>
				<stop offset="0.2449" style="stop-color:#4FA1A9"/>
				<stop offset="0.4898" style="stop-color:#FF7F8C"/>
				<stop offset="0.7806" style="stop-color:#FF9565"/>
				<stop offset="0.9694" style="stop-color:#FFCFB9"/>
			</linearGradient>
			<path d="M 0 0 H 1400 V 1400 H 0 V 0 Z" id="XMLID_322_" fill="url(#XMLID_4_)"/>
			
				<linearGradient id="XMLID_5_" gradientUnits="userSpaceOnUse" x1="1735.3225" y1="387.1294" x2="903.3224" y2="3.1294" gradientTransform="matrix(0.9965 8.319490e-002 -8.319490e-002 0.9965 44.7654 -329.6286)">
				<stop offset="0" style="stop-color:#FF7F8C;stop-opacity:0"/>
				<stop offset="0.3929" style="stop-color:#8EBBC0"/>
				<stop offset="0.9694" style="stop-color:#FFCFB9"/>
			</linearGradient>
			<path id="XMLID_377_" opacity="0.48" fill="url(#XMLID_5_)" d="M1919.7,43.5c-7.8,5.2-816.8,52.6-816.8,52.6l833.8,57.2&#10;&#9;&#9;&#9;&#9;l-26-110.5"/>
			<linearGradient id="XMLID_6_" gradientUnits="userSpaceOnUse" x1="-49.2823" y1="756.3096" x2="825.4732" y2="756.3096">
				<stop offset="0" style="stop-color:#FF7F8C"/>
				<stop offset="0.4031" style="stop-color:#FFAB85"/>
				<stop offset="0.9694" style="stop-color:#FFCFB9"/>
			</linearGradient>
			<path id="XMLID_156_" fill="url(#XMLID_6_)" d="M-49.3,635.6c13.6-22.8,45.1-26.6,71.6-23.7c26.4,2.8,54.5,9.4,78.7-1.6&#10;&#9;&#9;&#9;&#9;c29.8-13.6,42.3-48.4,61.7-74.8c51.5-70.2,156.5-105.2,232.4-53.3c39.6,27.1,63.8,70.9,89.5,111.4c5.8,9.2,12,18.5,21,24.5&#10;&#9;&#9;&#9;&#9;c25.3,16.9,61.5,1.8,88.9,15.3c19.7,9.7,29.7,31.6,45.1,47.3c17.5,18,41.8,27.6,65.5,35.9s48.2,16.2,67.9,31.9&#10;&#9;&#9;&#9;&#9;c33.9,27,49,89.6,52.4,130.7c0.3,4,0.5,8.1-1.2,11.7c-1.8,3.7-5.5,6.2-9,8.4c-128.4,81.8-283.2,108.3-433.5,132.3&#10;&#9;&#9;&#9;&#9;c-107,17.1-216.3,33.8-323.2,15.9c-14.3-2.4-28.8-5.5-41.6-12.6c-18.7-10.4-31.9-28.2-43.4-46.2L-49.3,635.6z"/>
			<linearGradient id="XMLID_7_" gradientUnits="userSpaceOnUse" x1="961.2447" y1="773.4476" x2="1592.4115" y2="773.4476">
				<stop offset="0" style="stop-color:#FF7F8C"/>
				<stop offset="0.4031" style="stop-color:#FFAB85"/>
				<stop offset="0.9694" style="stop-color:#FFCFB9"/>
			</linearGradient>
			<path id="XMLID_207_" fill="url(#XMLID_7_)" d="M1530.1,576.1c-36.1-22.1-78.3-34.7-120.6-32.9s-84.2,18.9-113.6,49.3&#10;&#9;&#9;&#9;&#9;c-31.4,32.4-49.2,79.6-89.3,100.2c-29.9,15.4-65.6,12.3-98.5,19.2c-32.5,6.9-62.8,24.2-85.3,48.7c-21.2,23-35.1,51.6-48.3,80&#10;&#9;&#9;&#9;&#9;c-11.7,25.2-21.9,58.5-1.9,77.7c6.6,6.3,15.3,9.7,23.9,12.9c65.6,24.9,131.5,50,200.5,62.8c113.5,21.2,233.2,7.9,339.4-37.5&#10;&#9;&#9;&#9;&#9;c21.7-9.3,44-20.9,56-41.2L1530.1,576.1z"/>
			<linearGradient id="XMLID_8_" gradientUnits="userSpaceOnUse" x1="1064.2551" y1="401.0014" x2="1064.2551" y2="1060.0256">
				<stop offset="5.102041e-002" style="stop-color:#0F4565"/>
				<stop offset="0.375" style="stop-color:#BF7579"/>
				<stop offset="0.5803" style="stop-color:#FF8680"/>
				<stop offset="0.7806" style="stop-color:#FFB898"/>
				<stop offset="0.9694" style="stop-color:#FFCFB9"/>
			</linearGradient>
			<path id="XMLID_164_" fill="url(#XMLID_8_)" d="M1428.3,865c-111.5-28.8-267.1-70-267.1-70l-138.8-215l-29.6-21.2l-49.5,62.9&#10;&#9;&#9;&#9;&#9;l-3.6-0.2c-100.1,167.6-220.2,318.5-350.1,469.2c99.5,52.1,181.1,93.1,187.9,91.2c13.7-3.8,419.3-91.8,620.1-148.2&#10;&#9;&#9;&#9;&#9;c63.8-17.9,107-32.6,110.3-40.4c2.3-5.3,4.6-11.7,7-18.5c12-34.6,24.2-82.3,24.2-82.3C1536.2,892.6,1488.7,880.6,1428.3,865z"/>
			<linearGradient id="XMLID_9_" gradientUnits="userSpaceOnUse" x1="574.3168" y1="499.1745" x2="574.3168" y2="998.3218">
				<stop offset="5.102041e-002" style="stop-color:#0F4565"/>
				<stop offset="0.375" style="stop-color:#BF7579"/>
				<stop offset="0.5803" style="stop-color:#FF8680"/>
				<stop offset="0.7806" style="stop-color:#FFB898"/>
				<stop offset="0.9694" style="stop-color:#FFCFB9"/>
			</linearGradient>
			<path id="XMLID_165_" fill="url(#XMLID_9_)" d="M879.8,618.7l-297.9,181L209,886.9c0,0,214.9,117.2,380.6,203.9&#10;&#9;&#9;&#9;&#9;c130-150.7,250-301.6,350.1-469.2L879.8,618.7z"/>
			<linearGradient id="XMLID_10_" gradientUnits="userSpaceOnUse" x1="547.6506" y1="871.5961" x2="1123.3387" y2="871.5961">
				<stop offset="0" style="stop-color:#FF7F8C"/>
				<stop offset="0.4031" style="stop-color:#FFAB85"/>
				<stop offset="0.9694" style="stop-color:#FFCFB9"/>
			</linearGradient>
			<path id="XMLID_234_" fill="url(#XMLID_10_)" d="M1123.2,887.8c-1.7-16.3-23.2-7-37.7-17c-12.7-8.7-10.9-28.7-20.5-40.7&#10;&#9;&#9;&#9;&#9;c-11.5-14.3-33.6-12.1-50.5-19.2c-28.7-12-38.2-48.1-61.2-69c-22.9-20.8-60-23.8-85.9-7c-17.3,11.2-30.2,30.1-50.2,34.9&#10;&#9;&#9;&#9;&#9;c-13.1,3.2-27.1-0.4-40.4,2.2c-31.2,6.2-48.3,44.1-79.5,50.6c-9.1,1.9-18.5,0.9-27.7,2.5c-22.3,4-38.6,22.5-53.1,39.9&#10;&#9;&#9;&#9;&#9;c-26.3,31.6-53.2,57.6-66.2,97.7c-2.6,8-4.6,17.4,0.2,24.4c3.5,5.2,9.8,7.6,15.8,9.5c31.4,9.8,64.5,13,97.3,15.6&#10;&#9;&#9;&#9;&#9;c93.7,7.2,187.9,8.9,281.8,5.2c39.3-1.5,80.1-4.5,114.4-23.6c14.4-8,29.2-45.2,38.1-58.8c6.6-10.1,22.7-26.8,24.8-38.7&#10;&#9;&#9;&#9;&#9;C1123.3,892.8,1123.5,890,1123.2,887.8z"/>
			<linearGradient id="XMLID_11_" gradientUnits="userSpaceOnUse" x1="763.7197" y1="1079.5714" x2="763.7197" y2="672.9147">
				<stop offset="3.061225e-002" style="stop-color:#FFCFB9"/>
				<stop offset="0.2194" style="stop-color:#FFB898"/>
				<stop offset="0.4197" style="stop-color:#FF8680"/>
				<stop offset="0.625" style="stop-color:#BF7579"/>
				<stop offset="0.949" style="stop-color:#0F4565"/>
			</linearGradient>
			<path id="XMLID_173_" fill="url(#XMLID_11_)" d="M953.2,929.5l-4.6-25.2l-3.9,21.1c-14.8-7.1-29.7-14.3-44.3-21.3l-9.7-53.4&#10;&#9;&#9;&#9;&#9;l-8.2,44.8c-1-0.5-2-0.9-2.9-1.4l-5.3-29l-4.4,24.3c-17-8.2-33.2-16-48.2-23.2l-6.3-34.7l-3,16.4l-4.6-25.3l-6.2,33.9&#10;&#9;&#9;&#9;&#9;c-37.9-18.3-63.4-30.6-63.4-30.6L680,854.1l-6.3-34.8l-7.6,41.5l-0.2,0.1l-4.6-25.2l-5.5,30l-36.1,17.5l-8.7-47.5l-10.3,56.7&#10;&#9;&#9;&#9;&#9;l-14.9,7.2l-4.1-22.6l-4.9,26.9l-180.9,87.6l378.4,171.7l357.4-149.4C1128.8,1013.6,1043.6,972.9,953.2,929.5z"/>
			<linearGradient id="XMLID_12_" gradientUnits="userSpaceOnUse" x1="369.7971" y1="1481" x2="369.7971" y2="1156.6052">
				<stop offset="5.102041e-002" style="stop-color:#0F4565"/>
				<stop offset="1" style="stop-color:#A1687D"/>
			</linearGradient>
			<path id="XMLID_114_" fill="url(#XMLID_12_)" d="M656.8,1061.6l-20.5-112.6l-14.5,79.3l-20.8-114l-17.9,98.2L388.2,882.9&#10;&#9;&#9;&#9;&#9;l-11.8-64.9l-9.3,50.9l-10-6.7l-19.5-107l-15.3,83.9l-4.7-3.1l-185.8,15.4l-21.4-117.5L88.3,854.8l-3.2,0.3l-14.6-80.2&#10;&#9;&#9;&#9;&#9;l-15.1,82.6l-81.1,6.7v206.4c0,0,319.2,174.3,343.3,180.3s422.9,44.5,426.2,19.1s21.5-136.3,21.5-136.3L656.8,1061.6z"/>
			<linearGradient id="XMLID_13_" gradientUnits="userSpaceOnUse" x1="992.8549" y1="1317" x2="992.8549" y2="936.99">
				<stop offset="5.102041e-002" style="stop-color:#0F4565"/>
				<stop offset="1" style="stop-color:#A1687D"/>
			</linearGradient>
			<path id="XMLID_119_" fill="url(#XMLID_13_)" d="M1393.2,935.7l-18.7-102.3l-17.2,94.6l-35.6-7.7L1296.3,781l-23.5,128.6&#10;&#9;&#9;&#9;&#9;l-112.7-24.4L1013,951.1l-20.1-110.4l-23.7,130l-54.6,24.4L904,937.1l-12.5,68.5L787.8,1052l-23.2-127l-27.3,149.6l-0.9,0.4&#10;&#9;&#9;&#9;&#9;l-15.6-85.3l-18.3,100.5l-101.2,45.3l-24.4-134l-28.8,157.9l-10.5,4.7l-17.3-94.6L500,1180.9L301,1270l879.2,300.7&#10;&#9;&#9;&#9;&#9;c0,0,246-127,292-144.7c46-17.7,212.6-427.1,212.6-427.1L1393.2,935.7z"/>
			<g id="XMLID_487_">
				<path d="M 813.7999877929688 851.0999755859375 L 801.5999755859375 1330.199951171875 L 826 1330.199951171875 Z" id="XMLID_501_" fill="#0F4565"/>
				<path d="M 813.2999877929688 853.5 L 826.9000244140625 875.0999755859375 L 813.7000122070312 871.7999877929688 L 804 875.0999755859375 Z" id="XMLID_500_" fill="#0F4565"/>
				<path id="XMLID_499_" fill="#0F4565" d="M791.4,900.5c0,0,2.7-0.7,6.3-1.5l7.4-8.8l1.3,6.7c3.1-0.8,5.5-1.4,6.1-1.5&#10;&#9;&#9;&#9;&#9;&#9;c0.5-0.2,3,0.3,6.2,1l1.1-6.2l4.5,7.5c5.7,1.4,11.2,2.8,11.2,2.8l-22.2-32.9L791.4,900.5z"/>
				<path id="XMLID_498_" fill="#0F4565" d="M783.6,934.2l13.9-14.4c-0.2,0.4-4.8,9.6-7,13.7l14.3-1.4l8.1-6.6l7.8,7.3l8.3,0.8&#10;&#9;&#9;&#9;&#9;&#9;l-0.8-8.9c0,0,5.6,6.2,8.6,9.6l11.2,1.1l-35.3-34.9l-40.9,34.9L783.6,934.2z"/>
				<path id="XMLID_497_" fill="#0F4565" d="M780.3,953.2c5.8-4.9,18.5-15.3,18.5-15.3l-7.4,13.9l11.7-1.5l8.5,1.2l0-16.1&#10;&#9;&#9;&#9;&#9;&#9;c0,0,4.4,10.6,7.1,17.1l4,0.6l31.9,2.1l-43.3-32.9l-45.9,32.9L780.3,953.2z"/>
				<path d="M 772.5 1024.800048828125 L 787.7999877929688 1007.5 L 781.5 1025 L 809 1025.800048828125 L 815.2000122070312 1015.7000122070312 L 830 1025.5999755859375 L 842.2000122070312 1025.199951171875 L 830.7999877929688 1008 L 851.4000244140625 1024.9000244140625 L 881.2999877929688 1023.7999877929688 L 813.7000122070312 990.9000244140625 L 742 1023.7999877929688 Z" id="XMLID_496_" fill="#0F4565"/>
				<path id="XMLID_495_" fill="#0F4565" d="M774,1118.9l12.4-16.3c-0.1,0.4-2,10.5-3.3,16.7l34.3,1.5l4-0.2l-1.8-31.2l12.5,30.6&#10;&#9;&#9;&#9;&#9;&#9;l24.5-1.3l-5.9-16.2l13.7,15.8l20.6-1.1l-71.3-51.3l-75.5,51.3L774,1118.9z"/>
				<path d="M 773.2000122070312 1226.699951171875 L 794.5 1206.4000244140625 L 789 1227.300048828125 L 817.7000122070312 1228.5 L 834 1227.699951171875 L 833.7999877929688 1203.0999755859375 L 851.0999755859375 1226.9000244140625 L 890.2999877929688 1225.0999755859375 L 813.9000244140625 1173.699951171875 L 733 1225.0999755859375 Z" id="XMLID_494_" fill="#0F4565"/>
				<path id="XMLID_493_" fill="#0F4565" d="M747.5,1192.9l26.7-29.5l-9.5,30l56.6,1.7l49.2-1.7c-6.1-11.6-15.6-29.4-15.9-30&#10;&#9;&#9;&#9;&#9;&#9;l32.6,29.4l50.1-1.7l-122-59.4L686,1191.1L747.5,1192.9z"/>
				<path id="XMLID_492_" fill="#0F4565" d="M756.9,1088.8c7.2-7.3,21.2-20.6,21.2-20.6l-4.4,21.1l45.5,1.3l22.2-0.8L836,1066&#10;&#9;&#9;&#9;&#9;&#9;c0,0,13.7,16.8,19,23.4l11.7-0.4l-4.9-13.1l12.3,12.9l35.3-1.2l-94.8-46.2L714,1087.5L756.9,1088.8z"/>
				<path id="XMLID_488_" fill="#0F4565" d="M773.5,992.6l21-20.8l-14.3,21l34.9,1.3l20.9-0.8c-4.6-12.2-9.1-23.7-9.5-24.5&#10;&#9;&#9;&#9;&#9;&#9;c-0.5-0.8,12.2,11.1,23.2,24l33.6-1.3l-67.7-32.9l-71.7,32.9L773.5,992.6z"/>
			</g>
			<g id="XMLID_443_">
				<path d="M 206.8000030517578 680.4000244140625 L 219.39999389648438 1175.9000244140625 L 194.10000610351562 1175.9000244140625 Z" id="XMLID_454_" fill="#0F4565"/>
				<path d="M 207.1999969482422 682.7999877929688 L 184.10000610351562 717.0999755859375 L 206.60000610351562 711.9000244140625 L 223.10000610351562 717.0999755859375 Z" id="XMLID_453_" fill="#0F4565"/>
				<path id="XMLID_452_" fill="#0F4565" d="M207.3,705.1l-37.8,52.1c0,0,36.5-8.9,39.3-8.2c2.8,0.7,35.7,8.2,35.7,8.2L207.3,705.1z&#10;&#9;&#9;&#9;&#9;&#9;"/>
				<path d="M 207.6999969482422 731.5 L 168.39999389648438 767.5 L 198.8000030517578 764.7999877929688 L 207.5 757.2999877929688 L 216.60000610351562 764.0999755859375 L 253.10000610351562 767.5 Z" id="XMLID_451_" fill="#0F4565"/>
				<path d="M 209.3000030517578 753.9000244140625 L 161.1999969482422 787.9000244140625 L 196.60000610351562 785.7999877929688 L 218.39999389648438 782.9000244140625 L 260.3999938964844 787.9000244140625 Z" id="XMLID_450_" fill="#0F4565"/>
				<path d="M 206.6999969482422 764.0999755859375 L 131.5 823.5999755859375 L 207.1999969482422 828.2999877929688 L 286.5 823.5999755859375 Z" id="XMLID_449_" fill="#0F4565"/>
				<path d="M 206.6999969482422 783.2000122070312 L 131.5 857.2999877929688 L 203 862.2999877929688 L 286.5 857.2999877929688 Z" id="XMLID_448_" fill="#0F4565"/>
				<path d="M 205.8000030517578 825.9000244140625 L 100.4000015258789 921.7000122070312 L 200.60000610351562 928.0999755859375 L 317.6000061035156 921.7000122070312 Z" id="XMLID_447_" fill="#0F4565"/>
				<path d="M 206.60000610351562 902.5999755859375 L 127.4000015258789 955.7000122070312 L 202.6999969482422 959.2999877929688 L 290.6000061035156 955.7000122070312 Z" id="XMLID_446_" fill="#0F4565"/>
				<path d="M 206.39999389648438 1014.0999755859375 L 121.5 1067.199951171875 L 202.1999969482422 1070.699951171875 L 296.3999938964844 1067.199951171875 Z" id="XMLID_445_" fill="#0F4565"/>
				<path d="M 204.89999389648438 931.5999755859375 L 69.19999694824219 1029.5999755859375 L 198.1999969482422 1036.199951171875 L 348.70001220703125 1029.5999755859375 Z" id="XMLID_444_" fill="#0F4565"/>
			</g>
			<g id="XMLID_468_">
				<path d="M 518.5999755859375 833.7999877929688 L 529.2000122070312 1251 L 507.8999938964844 1251 Z" id="XMLID_479_" fill="#0F4565"/>
				<path d="M 518.9000244140625 835.7999877929688 L 499.5 864.7000122070312 L 518.4000244140625 860.2999877929688 L 532.4000244140625 864.7000122070312 Z" id="XMLID_478_" fill="#0F4565"/>
				<path id="XMLID_477_" fill="#0F4565" d="M519,854.6l-31.8,43.9c0,0,30.7-7.5,33.1-6.9s30.1,6.9,30.1,6.9L519,854.6z"/>
				<path d="M 519.4000244140625 876.7999877929688 L 486.29998779296875 907.2000122070312 L 511.8999938964844 904.9000244140625 L 519.2000122070312 898.5 L 526.9000244140625 904.2999877929688 L 557.5999755859375 907.2000122070312 Z" id="XMLID_476_" fill="#0F4565"/>
				<path d="M 520.7999877929688 895.7000122070312 L 480.20001220703125 924.4000244140625 L 510 922.5999755859375 L 528.4000244140625 920.0999755859375 L 563.7999877929688 924.4000244140625 Z" id="XMLID_475_" fill="#0F4565"/>
				<path d="M 518.5999755859375 904.2999877929688 L 455.20001220703125 954.2999877929688 L 518.9000244140625 958.4000244140625 L 585.7000122070312 954.2999877929688 Z" id="XMLID_474_" fill="#0F4565"/>
				<path d="M 518.5999755859375 920.4000244140625 L 455.20001220703125 982.7999877929688 L 515.4000244140625 987 L 585.7000122070312 982.7999877929688 Z" id="XMLID_473_" fill="#0F4565"/>
				<path d="M 517.7999877929688 956.2999877929688 L 429 1037 L 513.4000244140625 1042.4000244140625 L 611.9000244140625 1037 Z" id="XMLID_472_" fill="#0F4565"/>
				<path d="M 518.5 1020.9000244140625 L 451.70001220703125 1065.5999755859375 L 515.0999755859375 1068.5999755859375 L 589.2000122070312 1065.5999755859375 Z" id="XMLID_471_" fill="#0F4565"/>
				<path d="M 518.2999877929688 1114.800048828125 L 446.79998779296875 1159.5 L 514.7000122070312 1162.5 L 594.0999755859375 1159.5 Z" id="XMLID_470_" fill="#0F4565"/>
				<path d="M 517 1045.300048828125 L 402.79998779296875 1127.9000244140625 L 511.29998779296875 1133.4000244140625 L 638.0999755859375 1127.9000244140625 Z" id="XMLID_469_" fill="#0F4565"/>
			</g>
			<g id="XMLID_480_">
				<path d="M 623.7000122070312 991.7999877929688 L 636.2999877929688 1486.199951171875 L 611 1486.199951171875 Z" id="XMLID_491_" fill="#0F4565"/>
				<path d="M 624.0999755859375 994.2000122070312 L 601 1028.4000244140625 L 623.5 1023.2000122070312 L 640 1028.4000244140625 Z" id="XMLID_490_" fill="#0F4565"/>
				<path id="XMLID_489_" fill="#0F4565" d="M624.2,1016.5l-37.7,71.1c0,0,36.4-12.2,39.2-11.2c2.8,1,35.7,11.2,35.7,11.2&#10;&#9;&#9;&#9;&#9;&#9;L624.2,1016.5z"/>
				<path d="M 623.9000244140625 1068.199951171875 L 558.5999755859375 1127.5 L 624.2999877929688 1132.300048828125 L 693.2000122070312 1127.5 Z" id="XMLID_486_" fill="#0F4565"/>
				<path d="M 623.5999755859375 1094.4000244140625 L 548.5 1168.300048828125 L 619.9000244140625 1173.300048828125 L 703.2000122070312 1168.300048828125 Z" id="XMLID_485_" fill="#0F4565"/>
				<path d="M 622.7000122070312 1137 L 517.5 1232.5999755859375 L 617.5 1239 L 734.2000122070312 1232.5999755859375 Z" id="XMLID_484_" fill="#0F4565"/>
				<path d="M 623.5 1213.5999755859375 L 544.4000244140625 1266.5 L 619.5999755859375 1270.0999755859375 L 707.2999877929688 1266.5 Z" id="XMLID_483_" fill="#0F4565"/>
				<path d="M 623.2999877929688 1324.800048828125 L 538.5999755859375 1377.800048828125 L 619.0999755859375 1381.300048828125 L 713.0999755859375 1377.800048828125 Z" id="XMLID_482_" fill="#0F4565"/>
				<path d="M 621.7999877929688 1242.5 L 486.3999938964844 1340.300048828125 L 615.0999755859375 1346.9000244140625 L 765.2999877929688 1340.300048828125 Z" id="XMLID_481_" fill="#0F4565"/>
			</g>
			<g id="XMLID_392_">
				<path d="M 102.69999694824219 313 L 124.69999694824219 1175.9000244140625 L 80.69999694824219 1175.9000244140625 Z" id="XMLID_403_" fill="#0F4565"/>
				<linearGradient id="XMLID_14_" gradientUnits="userSpaceOnUse" x1="70.4829" y1="336.7423" x2="124.7295" y2="336.7423">
					<stop offset="5.102041e-002" style="stop-color:#0F4565"/>
					<stop offset="1" style="stop-color:#A1687D"/>
				</linearGradient>
				<path d="M 102.5999984741211 317.29998779296875 L 70.5 356.20001220703125 L 101.69999694824219 350.29998779296875 L 124.69999694824219 356.20001220703125 Z" id="XMLID_402_" fill="url(#XMLID_14_)"/>
				<linearGradient id="XMLID_15_" gradientUnits="userSpaceOnUse" x1="50.1405" y1="372.3322" x2="154.3956" y2="372.3322">
					<stop offset="5.102041e-002" style="stop-color:#0F4565"/>
					<stop offset="1" style="stop-color:#A1687D"/>
				</linearGradient>
				<path id="XMLID_401_" fill="url(#XMLID_15_)" d="M154.4,402c0,0-6.5-1.2-14.8-2.7l-17.4-15.9l-3.1,12.1&#10;&#9;&#9;&#9;&#9;&#9;c-7.2-1.4-13.1-2.5-14.4-2.7c-1.2-0.3-7.2,0.6-14.7,1.8l-2.6-11.2l-10.7,13.5c-13.4,2.5-26.6,5.1-26.6,5.1l52.6-59.3L154.4,402z&#10;&#9;&#9;&#9;&#9;&#9;"/>
				<linearGradient id="XMLID_16_" gradientUnits="userSpaceOnUse" x1="20.3049" y1="433.385" x2="200.4713" y2="433.385">
					<stop offset="5.102041e-002" style="stop-color:#0F4565"/>
					<stop offset="1" style="stop-color:#A1687D"/>
				</linearGradient>
				<path id="XMLID_400_" fill="url(#XMLID_16_)" d="M172.9,462.7L140,436.8c0.4,0.7,11.2,17.3,16.6,24.6l-33.9-2.6L103.5,447&#10;&#9;&#9;&#9;&#9;&#9;L85,460l-19.7,1.4l1.9-16c0,0-13.3,11.2-20.4,17.3l-26.4,1.9l83.5-62.8l96.6,62.8L172.9,462.7z"/>
				<linearGradient id="XMLID_17_" gradientUnits="userSpaceOnUse" x1="4.8277" y1="470.6541" x2="215.9485" y2="470.6541">
					<stop offset="5.102041e-002" style="stop-color:#0F4565"/>
					<stop offset="1" style="stop-color:#A1687D"/>
				</linearGradient>
				<path id="XMLID_399_" fill="url(#XMLID_17_)" d="M180.7,496.9c-13.8-8.9-43.8-27.6-43.8-27.6l17.4,25l-27.7-2.7l-20.1,2.2l0-29&#10;&#9;&#9;&#9;&#9;&#9;c0,0-10.5,19.2-16.9,30.8l-9.4,1l-75.4,3.7L107.3,441l108.6,59.3L180.7,496.9z"/>
				<linearGradient id="XMLID_18_" gradientUnits="userSpaceOnUse" x1="-20.7087" y1="596.2618" x2="308.9578" y2="596.2618">
					<stop offset="5.102041e-002" style="stop-color:#0F4565"/>
					<stop offset="1" style="stop-color:#A1687D"/>
				</linearGradient>
				<path d="M 199.10000610351562 625.7999877929688 L 162.89999389648438 594.7000122070312 L 177.8000030517578 626.2000122070312 L 112.80000305175781 627.7000122070312 L 98.19999694824219 609.4000244140625 L 63.20000076293945 627.2999877929688 L 34.29999923706055 626.5999755859375 L 61.20000076293945 595.5 L 12.399999618530273 626 L -58.29999923706055 624.0999755859375 L 101.80000305175781 564.7999877929688 L 271.3999938964844 624.0999755859375 Z" id="XMLID_398_" fill="url(#XMLID_18_)"/>
				<linearGradient id="XMLID_19_" gradientUnits="userSpaceOnUse" x1="35.4605" y1="749.3798" x2="382.6555" y2="749.3798">
					<stop offset="5.102041e-002" style="stop-color:#0F4565"/>
					<stop offset="1" style="stop-color:#A1687D"/>
				</linearGradient>
				<path id="XMLID_397_" fill="url(#XMLID_19_)" d="M195.6,795.3l-29.3-29.4c0.2,0.8,4.8,18.8,7.9,30.1l-81,2.7l-9.6-0.4l4.2-56.2&#10;&#9;&#9;&#9;&#9;&#9;l-29.6,55.2l-57.9-2.3l14-29.2l-32.5,28.5l-48.8-1.9L101.5,700l178.6,92.4L195.6,795.3z"/>
				<linearGradient id="XMLID_20_" gradientUnits="userSpaceOnUse" x1="48.6663" y1="943.4468" x2="420.713" y2="943.4468">
					<stop offset="5.102041e-002" style="stop-color:#0F4565"/>
					<stop offset="1" style="stop-color:#A1687D"/>
				</linearGradient>
				<path d="M 197.39999389648438 989.5 L 147.10000610351562 952.9000244140625 L 160 990.7000122070312 L 92.0999984741211 992.7999877929688 L 53.599998474121094 991.4000244140625 L 54.099998474121094 947 L 13.300000190734863 989.9000244140625 L -79.5 986.5999755859375 L 101.19999694824219 894.0999755859375 L 292.6000061035156 986.5999755859375 Z" id="XMLID_396_" fill="url(#XMLID_20_)"/>
				<linearGradient id="XMLID_21_" gradientUnits="userSpaceOnUse" x1="-190.6804" y1="875.5453" x2="403.7434" y2="875.5453">
					<stop offset="5.102041e-002" style="stop-color:#0F4565"/>
					<stop offset="1" style="stop-color:#A1687D"/>
				</linearGradient>
				<path id="XMLID_395_" fill="url(#XMLID_21_)" d="M258.3,928.7l-63.3-53.2l22.4,54.1l-134,3l-116.3-3.1&#10;&#9;&#9;&#9;&#9;&#9;c14.4-20.8,36.9-53,37.6-54l-77.1,53l-118.4-3.1L98,818.5l305.8,107L258.3,928.7z"/>
				<linearGradient id="XMLID_22_" gradientUnits="userSpaceOnUse" x1="-124.4826" y1="700.0493" x2="337.5455" y2="700.0493">
					<stop offset="5.102041e-002" style="stop-color:#0F4565"/>
					<stop offset="1" style="stop-color:#A1687D"/>
				</linearGradient>
				<path id="XMLID_394_" fill="url(#XMLID_22_)" d="M236,741.1C219,728,185.8,704,185.8,704l10.5,38l-107.6,2.4l-52.6-1.4L49,700&#10;&#9;&#9;&#9;&#9;&#9;c0,0-32.4,30.2-44.9,42.2l-27.7-0.7l11.5-23.6L-41,741l-83.5-2.2l224.3-83.2l237.7,83.2L236,741.1z"/>
				<linearGradient id="XMLID_23_" gradientUnits="userSpaceOnUse" x1="-62.5567" y1="538.6234" x2="267.0928" y2="538.6234">
					<stop offset="5.102041e-002" style="stop-color:#0F4565"/>
					<stop offset="1" style="stop-color:#A1687D"/>
				</linearGradient>
				<path id="XMLID_393_" fill="url(#XMLID_23_)" d="M196.8,567.9l-49.7-37.4l33.8,37.8l-82.4,2.3l-49.3-1.5&#10;&#9;&#9;&#9;&#9;&#9;c11-21.9,21.4-42.7,22.6-44.1c1.2-1.5-28.8,20-54.8,43.2l-79.4-2.4l160.1-59.3l169.6,59.3L196.8,567.9z"/>
			</g>
			<g id="XMLID_502_">
				<path d="M 1305.800048828125 1.9000000953674316 L 1336.199951171875 1190.5999755859375 L 1275.5 1190.5999755859375 Z" id="XMLID_513_" fill="#0F4565"/>
				<linearGradient id="XMLID_24_" gradientUnits="userSpaceOnUse" x1="1261.4497" y1="34.6102" x2="1336.1826" y2="34.6102">
					<stop offset="5.102041e-002" style="stop-color:#0F4565"/>
					<stop offset="1" style="stop-color:#A1687D"/>
				</linearGradient>
				<path d="M 1305.699951171875 7.800000190734863 L 1261.4000244140625 61.5 L 1304.5 53.29999923706055 L 1336.199951171875 61.5 Z" id="XMLID_512_" fill="url(#XMLID_24_)"/>
				<linearGradient id="XMLID_25_" gradientUnits="userSpaceOnUse" x1="1233.4248" y1="83.6406" x2="1377.0521" y2="83.6406">
					<stop offset="5.102041e-002" style="stop-color:#0F4565"/>
					<stop offset="1" style="stop-color:#A1687D"/>
				</linearGradient>
				<path id="XMLID_511_" fill="url(#XMLID_25_)" d="M1377.1,124.5c0,0-8.9-1.7-20.4-3.8l-24-21.9l-4.3,16.7&#10;&#9;&#9;&#9;&#9;&#9;c-10-1.9-18-3.4-19.8-3.8c-1.7-0.4-9.9,0.8-20.3,2.5l-3.5-15.4l-14.8,18.7c-18.5,3.4-36.6,7-36.6,7l72.4-81.7L1377.1,124.5z"/>
				<linearGradient id="XMLID_26_" gradientUnits="userSpaceOnUse" x1="1192.3218" y1="167.7502" x2="1440.5284" y2="167.7502">
					<stop offset="5.102041e-002" style="stop-color:#0F4565"/>
					<stop offset="1" style="stop-color:#A1687D"/>
				</linearGradient>
				<path id="XMLID_510_" fill="url(#XMLID_26_)" d="M1402.5,208.1l-45.3-35.7c0.6,0.9,15.5,23.9,22.8,33.9l-46.6-3.6l-26.5-16.3&#10;&#9;&#9;&#9;&#9;&#9;l-25.5,18l-27.2,2l2.6-22c0,0-18.4,15.4-28.1,23.9l-36.4,2.7l115.1-86.5l133.1,86.5L1402.5,208.1z"/>
				<linearGradient id="XMLID_27_" gradientUnits="userSpaceOnUse" x1="1170.9995" y1="219.0941" x2="1461.8507" y2="219.0941">
					<stop offset="5.102041e-002" style="stop-color:#0F4565"/>
					<stop offset="1" style="stop-color:#A1687D"/>
				</linearGradient>
				<path id="XMLID_509_" fill="url(#XMLID_27_)" d="M1413.2,255.2c-19-12.2-60.3-38-60.3-38l24,34.5l-38.2-3.7l-27.6,3l0-39.9&#10;&#9;&#9;&#9;&#9;&#9;c0,0-14.5,26.4-23.3,42.5l-13,1.4L1171,260l141.2-81.7l149.6,81.7L1413.2,255.2z"/>
				<linearGradient id="XMLID_28_" gradientUnits="userSpaceOnUse" x1="1135.8192" y1="392.1379" x2="1589.9852" y2="392.1379">
					<stop offset="5.102041e-002" style="stop-color:#0F4565"/>
					<stop offset="1" style="stop-color:#A1687D"/>
				</linearGradient>
				<path d="M 1438.5999755859375 432.79998779296875 L 1388.699951171875 390 L 1409.300048828125 433.3999938964844 L 1319.800048828125 435.5 L 1299.5999755859375 410.29998779296875 L 1251.5 435 L 1211.5999755859375 433.8999938964844 L 1248.5999755859375 391.1000061035156 L 1181.5 433.1000061035156 L 1084 430.5 L 1304.5999755859375 348.79998779296875 L 1538.199951171875 430.5 Z" id="XMLID_508_" fill="url(#XMLID_28_)"/>
				<linearGradient id="XMLID_29_" gradientUnits="userSpaceOnUse" x1="1213.2009" y1="603.0813" x2="1691.515" y2="603.0813">
					<stop offset="5.102041e-002" style="stop-color:#0F4565"/>
					<stop offset="1" style="stop-color:#A1687D"/>
				</linearGradient>
				<path id="XMLID_507_" fill="url(#XMLID_29_)" d="M1433.8,666.3l-40.3-40.4c0.3,1.1,6.7,25.9,10.9,41.4l-111.7,3.7l-13.2-0.5&#10;&#9;&#9;&#9;&#9;&#9;l5.8-77.4l-40.8,76l-79.7-3.1l19.3-40.2l-44.8,39.2l-67.3-2.6l232.3-127.3l246.1,127.3L1433.8,666.3z"/>
				<linearGradient id="XMLID_30_" gradientUnits="userSpaceOnUse" x1="1231.3939" y1="870.4384" x2="1743.9451" y2="870.4384">
					<stop offset="5.102041e-002" style="stop-color:#0F4565"/>
					<stop offset="1" style="stop-color:#A1687D"/>
				</linearGradient>
				<path d="M 1436.300048828125 933.9000244140625 L 1366.9000244140625 883.5 L 1384.800048828125 935.5 L 1291.300048828125 938.4000244140625 L 1238.199951171875 936.5 L 1238.9000244140625 875.2999877929688 L 1182.699951171875 934.5 L 1054.800048828125 929.7999877929688 L 1303.699951171875 802.5 L 1567.4000244140625 929.7999877929688 Z" id="XMLID_506_" fill="url(#XMLID_30_)"/>
				<linearGradient id="XMLID_31_" gradientUnits="userSpaceOnUse" x1="901.6573" y1="776.8936" x2="1720.5668" y2="776.8936">
					<stop offset="5.102041e-002" style="stop-color:#0F4565"/>
					<stop offset="1" style="stop-color:#A1687D"/>
				</linearGradient>
				<path id="XMLID_505_" fill="url(#XMLID_31_)" d="M1520.3,850.1l-87.2-73.2l30.9,74.5l-184.6,4.2l-160.3-4.2&#10;&#9;&#9;&#9;&#9;&#9;c19.8-28.7,50.8-73.1,51.8-74.4l-106.2,73l-163.1-4.3l397.6-147.4l421.3,147.4L1520.3,850.1z"/>
				<linearGradient id="XMLID_32_" gradientUnits="userSpaceOnUse" x1="992.8549" y1="535.121" x2="1629.3691" y2="535.121">
					<stop offset="5.102041e-002" style="stop-color:#0F4565"/>
					<stop offset="1" style="stop-color:#A1687D"/>
				</linearGradient>
				<path id="XMLID_504_" fill="url(#XMLID_32_)" d="M1489.5,591.7c-23.5-18-69.1-51.1-69.1-51.1l14.5,52.3l-148.3,3.3l-72.5-1.9&#10;&#9;&#9;&#9;&#9;&#9;l17.8-59.2c0,0-44.7,41.6-61.9,58.1l-38.1-1l15.9-32.5l-40,31.9l-115-3L1301.9,474l327.4,114.6L1489.5,591.7z"/>
				<linearGradient id="XMLID_33_" gradientUnits="userSpaceOnUse" x1="1078.1672" y1="312.7321" x2="1532.3098" y2="312.7321">
					<stop offset="5.102041e-002" style="stop-color:#0F4565"/>
					<stop offset="1" style="stop-color:#A1687D"/>
				</linearGradient>
				<path id="XMLID_503_" fill="url(#XMLID_33_)" d="M1435.4,353.1l-68.5-51.5l46.6,52.1l-113.6,3.2l-68-2&#10;&#9;&#9;&#9;&#9;&#9;c15.1-30.2,29.5-58.8,31.1-60.8c1.6-2-39.7,27.6-75.5,59.5l-109.4-3.2l220.5-81.7l233.6,81.7L1435.4,353.1z"/>
			</g>
			<g id="XMLID_456_">
				<path d="M 466.6000061035156 607.7000122070312 L 450.8999938964844 1225.199951171875 L 482.3999938964844 1225.199951171875 Z" id="XMLID_467_" fill="#0F4565"/>
				
					<linearGradient id="XMLID_34_" gradientUnits="userSpaceOnUse" x1="6261.4072" y1="624.6967" x2="6290.9702" y2="624.6967" gradientTransform="matrix(-1 0 0 1 6744.9336 0)">
					<stop offset="0" style="stop-color:#A1687D"/>
					<stop offset="0.949" style="stop-color:#0F4565"/>
				</linearGradient>
				<path d="M 466 610.7999877929688 L 483.5 638.5999755859375 L 466.5 634.4000244140625 L 454 638.5999755859375 Z" id="XMLID_466_" fill="url(#XMLID_34_)"/>
				
					<linearGradient id="XMLID_35_" gradientUnits="userSpaceOnUse" x1="6250.3208" y1="650.1678" x2="6307.1377" y2="650.1678" gradientTransform="matrix(-1 0 0 1 6744.9336 0)">
					<stop offset="0" style="stop-color:#A1687D"/>
					<stop offset="0.949" style="stop-color:#0F4565"/>
				</linearGradient>
				<path id="XMLID_465_" fill="url(#XMLID_35_)" d="M437.8,671.4c0,0,3.5-0.9,8.1-2l9.5-11.4l1.7,8.7c3.9-1,7.1-1.8,7.8-2&#10;&#9;&#9;&#9;&#9;&#9;c0.7-0.2,3.9,0.4,8,1.3l1.4-8l5.8,9.7c7.3,1.8,14.5,3.7,14.5,3.7L466,628.9L437.8,671.4z"/>
				
					<linearGradient id="XMLID_36_" gradientUnits="userSpaceOnUse" x1="6234.061" y1="693.8625" x2="6332.248" y2="693.8625" gradientTransform="matrix(-1 0 0 1 6744.9336 0)">
					<stop offset="0" style="stop-color:#A1687D"/>
					<stop offset="0.949" style="stop-color:#0F4565"/>
				</linearGradient>
				<path id="XMLID_464_" fill="url(#XMLID_36_)" d="M427.7,714.8l17.9-18.5c-0.2,0.5-6.1,12.4-9,17.6l18.4-1.9l10.5-8.5l10.1,9.4&#10;&#9;&#9;&#9;&#9;&#9;l10.8,1l-1-11.4c0,0,7.3,8,11.1,12.4l14.4,1.4l-45.5-44.9l-52.7,44.9L427.7,714.8z"/>
				
					<linearGradient id="XMLID_37_" gradientUnits="userSpaceOnUse" x1="6177.8208" y1="720.5355" x2="6292.877" y2="720.5355" gradientTransform="matrix(-1 0 0 1 6744.9336 0)">
					<stop offset="0" style="stop-color:#A1687D"/>
					<stop offset="0.949" style="stop-color:#0F4565"/>
				</linearGradient>
				<path id="XMLID_463_" fill="url(#XMLID_37_)" d="M423.5,739.3c7.5-6.4,23.9-19.8,23.9-19.8l-9.5,17.9l15.1-1.9l10.9,1.6l0-20.7&#10;&#9;&#9;&#9;&#9;&#9;c0,0,5.7,13.7,9.2,22.1l5.1,0.7l41.1,2.7l-55.9-42.5l-59.2,42.5L423.5,739.3z"/>
				
					<linearGradient id="XMLID_38_" gradientUnits="userSpaceOnUse" x1="6211.7095" y1="810.4313" x2="6391.3706" y2="810.4313" gradientTransform="matrix(-1 0 0 1 6744.9336 0)">
					<stop offset="0" style="stop-color:#A1687D"/>
					<stop offset="0.949" style="stop-color:#0F4565"/>
				</linearGradient>
				<path d="M 413.3999938964844 831.5 L 433.20001220703125 809.2999877929688 L 425 831.9000244140625 L 460.3999938964844 832.9000244140625 L 468.3999938964844 819.9000244140625 L 487.5 832.7000122070312 L 503.20001220703125 832.0999755859375 L 488.6000061035156 809.9000244140625 L 515.2000122070312 831.7000122070312 L 553.7000122070312 830.4000244140625 L 466.5 787.9000244140625 L 374.1000061035156 830.4000244140625 Z" id="XMLID_462_" fill="url(#XMLID_38_)"/>
				
					<linearGradient id="XMLID_39_" gradientUnits="userSpaceOnUse" x1="6120.7578" y1="920.0157" x2="6309.9717" y2="920.0157" gradientTransform="matrix(-1 0 0 1 6744.9336 0)">
					<stop offset="0" style="stop-color:#A1687D"/>
					<stop offset="0.949" style="stop-color:#0F4565"/>
				</linearGradient>
				<path id="XMLID_461_" fill="url(#XMLID_39_)" d="M415.4,952.9l16-21c-0.1,0.6-2.6,13.5-4.3,21.5l44.2,1.9l5.2-0.3l-2.3-40.2&#10;&#9;&#9;&#9;&#9;&#9;l16.1,39.5l31.5-1.6l-7.6-20.9l17.7,20.4l26.6-1.4l-91.9-66.2l-97.3,66.2L415.4,952.9z"/>
				
					<linearGradient id="XMLID_40_" gradientUnits="userSpaceOnUse" x1="6138.8818" y1="1058.9069" x2="6341.6392" y2="1058.9069" gradientTransform="matrix(-1 0 0 1 6744.9336 0)">
					<stop offset="0" style="stop-color:#A1687D"/>
					<stop offset="0.949" style="stop-color:#0F4565"/>
				</linearGradient>
				<path d="M 414.29998779296875 1091.9000244140625 L 441.79998779296875 1065.699951171875 L 434.70001220703125 1092.699951171875 L 471.70001220703125 1094.199951171875 L 492.70001220703125 1093.199951171875 L 492.5 1061.5 L 514.7000122070312 1092.199951171875 L 565.2999877929688 1089.800048828125 L 466.79998779296875 1023.5999755859375 L 362.5 1089.800048828125 Z" id="XMLID_460_" fill="url(#XMLID_40_)"/>
				
					<linearGradient id="XMLID_41_" gradientUnits="userSpaceOnUse" x1="6119.0786" y1="1010.3107" x2="6443.0269" y2="1010.3107" gradientTransform="matrix(-1 0 0 1 6744.9336 0)">
					<stop offset="0" style="stop-color:#A1687D"/>
					<stop offset="0.949" style="stop-color:#0F4565"/>
				</linearGradient>
				<path id="XMLID_459_" fill="url(#XMLID_41_)" d="M381.1,1048.4l34.5-38l-12.2,38.7l73,2.2l63.4-2.2c-7.8-14.9-20.1-38-20.5-38.7&#10;&#9;&#9;&#9;&#9;&#9;l42,37.9l64.5-2.2l-157.3-76.6L301.9,1046L381.1,1048.4z"/>
				
					<linearGradient id="XMLID_42_" gradientUnits="userSpaceOnUse" x1="6155.1548" y1="884.7105" x2="6406.9507" y2="884.7105" gradientTransform="matrix(-1 0 0 1 6744.9336 0)">
					<stop offset="0" style="stop-color:#A1687D"/>
					<stop offset="0.949" style="stop-color:#0F4565"/>
				</linearGradient>
				<path id="XMLID_458_" fill="url(#XMLID_42_)" d="M393.3,914.1c9.3-9.4,27.3-26.5,27.3-26.5l-5.7,27.2l58.7,1.7l28.7-1l-7-30.8&#10;&#9;&#9;&#9;&#9;&#9;c0,0,17.7,21.6,24.5,30.2l15.1-0.5l-6.3-16.9l15.8,16.6l45.5-1.6l-122.3-59.5L338,912.5L393.3,914.1z"/>
				
					<linearGradient id="XMLID_43_" gradientUnits="userSpaceOnUse" x1="6188.9033" y1="769.1802" x2="6368.5552" y2="769.1802" gradientTransform="matrix(-1 0 0 1 6744.9336 0)">
					<stop offset="0" style="stop-color:#A1687D"/>
					<stop offset="0.949" style="stop-color:#0F4565"/>
				</linearGradient>
				<path id="XMLID_457_" fill="url(#XMLID_43_)" d="M414.7,790.1l27.1-26.8l-18.4,27.1l44.9,1.7l26.9-1&#10;&#9;&#9;&#9;&#9;&#9;c-6-15.7-11.7-30.5-12.3-31.6c-0.6-1,15.7,14.3,29.9,30.9l43.3-1.7l-87.2-42.5l-92.4,42.5L414.7,790.1z"/>
			</g>
			<path id="XMLID_364_" fill="#0F4565" d="M1217.7,1136.8c6.6-16.2,15-30.1,23.3-45c-23.4-17.2-51.4-27.3-80.3-28.9&#10;&#9;&#9;&#9;&#9;c-1.8,18.9-5.4,37.8-7.6,56.4c-9.5-17.5-17.6-36.2-26.3-54.4c-14.4,2.5-28.6,7.1-42.2,14.1c-10.9,5.6-20.9,12.3-29.8,20&#10;&#9;&#9;&#9;&#9;c9.7,18.1,20,35.8,33.5,51.7c-19.2-8.7-37.4-18.2-56.3-27c-11,15-19,31.8-23.8,49.6c14.3,13,29.6,25,45.6,35.3&#10;&#9;&#9;&#9;&#9;c-1.7,1.7-3.4,0-5,0c-1.3,0.7-2.4-1.3-4.4-2c-13.9-0.8-28,1.9-41.3,1.2c-0.7,24.1,4.5,48.7,16.2,71.7c0.9,1.7,1.8,3.5,2.8,5.2&#10;&#9;&#9;&#9;&#9;c88-46,179.9-84.3,267-132.2c-1.2-2.8-2.5-5.6-3.9-8.4c-6.1-11.9-13.5-22.7-22.1-32.2C1247.9,1120.1,1232.6,1128.3,1217.7,1136.8&#10;&#9;&#9;&#9;&#9;z"/>
			<linearGradient id="XMLID_44_" gradientUnits="userSpaceOnUse" x1="700.0001" y1="1456.0045" x2="700.0001" y2="444.089">
				<stop offset="5.102041e-002" style="stop-color:#0F4565"/>
				<stop offset="0.6967" style="stop-color:#FF7F8C"/>
				<stop offset="0.7806" style="stop-color:#FF9565"/>
				<stop offset="0.9694" style="stop-color:#FFCFB9"/>
			</linearGradient>
			<path id="XMLID_337_" fill="url(#XMLID_44_)" d="M0,1411c0-11,0-344,0-344l1400,333L0,1411z"/>
			<path d="M 1400 1049 L 721.5999755859375 1405.300048828125 L 1400 1400 Z" id="XMLID_351_" fill="#0F4565"/>
			<linearGradient id="XMLID_45_" gradientUnits="userSpaceOnUse" x1="1475.1316" y1="1348.3175" x2="1059.1316" y2="892.3175">
				<stop offset="5.102041e-002" style="stop-color:#0F4565"/>
				<stop offset="1" style="stop-color:#A1687D"/>
			</linearGradient>
			<path id="XMLID_379_" fill="url(#XMLID_45_)" d="M1360.1,1079.7c6.6-16.1,14.9-29.9,23.2-44.7c-23.2-17.1-51-27.1-79.7-28.7&#10;&#9;&#9;&#9;&#9;c-1.7,18.8-5.3,37.5-7.5,55.9c-9.4-17.4-17.5-35.9-26.1-54c-14.2,2.5-28.4,7.1-41.9,14c-10.9,5.5-20.7,12.2-29.6,19.8&#10;&#9;&#9;&#9;&#9;c9.6,18,19.8,35.6,33.2,51.3c-19-8.6-37.2-18.1-55.8-26.8c-10.9,14.9-18.9,31.6-23.6,49.2c14.2,12.9,29.4,24.8,45.3,35.1&#10;&#9;&#9;&#9;&#9;c-1.7,1.7-3.3,0-5,0c-1.3,0.7-2.3-1.3-4.3-2c-13.8-0.8-27.8,1.9-41,1.2c-0.7,23.9,4.5,48.4,16.1,71.2c0.9,1.7,1.8,3.4,2.7,5.1&#10;&#9;&#9;&#9;&#9;c87.4-45.6,178.6-83.7,264.9-131.2c-1.2-2.8-2.5-5.6-3.9-8.3c-6-11.8-13.4-22.5-21.9-31.9&#10;&#9;&#9;&#9;&#9;C1390.1,1063.2,1375,1071.3,1360.1,1079.7z"/>
			<path id="XMLID_514_" fill="#0F4565" d="M28.2,1369.8c-16-15.6-32.9-27.6-50.3-40.8c18.6-32.1,46.2-58.1,79.2-74.7&#10;&#9;&#9;&#9;&#9;c11.7,21.2,25.6,41.5,37.5,62.1c2.2-25.4,2.2-51.3,3-77.1c18.1-4.4,37.1-6.2,56.6-5c15.6,1,30.7,3.8,45,8.2&#10;&#9;&#9;&#9;&#9;c-2.1,26.2-5.1,52.1-12.9,77.5c18-19.9,34.5-40.4,52.1-60.3c20.5,11.9,38.4,27.6,53.1,45.9c-10.1,22.5-21.9,44.4-35.4,64.6&#10;&#9;&#9;&#9;&#9;c2.8,1.1,3.9-1.7,5.9-2.5c1.9,0.1,2.1-2.7,4.1-4.5c15.9-8,33.7-12.1,49-19.6c13.1,27.9,19.6,59.3,17.5,92.2&#10;&#9;&#9;&#9;&#9;c-0.2,2.5-0.4,5-0.6,7.5c-126.4-9-253.5-7-379.8-18.8c0-3.9,0.1-7.9,0.3-11.8c1-17,4.3-33.4,9.5-48.9&#10;&#9;&#9;&#9;&#9;C-15.7,1365.7,6.4,1367.5,28.2,1369.8z"/>
			<path id="XMLID_158_" fill="#0F4565" d="M203,1436.5c-16-15.6-32.9-27.6-50.3-40.8c18.6-32.1,46.2-58.1,79.2-74.7&#10;&#9;&#9;&#9;&#9;c11.7,21.2,25.6,41.5,37.5,62.1c2.2-25.4,2.2-51.3,3-77.1c18.1-4.4,37.1-6.2,56.6-5c15.6,1,30.7,3.8,45,8.2&#10;&#9;&#9;&#9;&#9;c-2.1,26.2-5.1,52.1-12.9,77.5c18-19.9,34.5-40.4,52.1-60.3c20.5,11.9,38.4,27.6,53.1,45.9c-10.1,22.5-21.9,44.4-35.4,64.6&#10;&#9;&#9;&#9;&#9;c2.8,1.1,3.9-1.7,5.9-2.5c1.9,0.1,2.1-2.7,4.1-4.5c15.9-8,33.7-12.1,49-19.6c13.1,27.9,19.6,59.3,17.5,92.2&#10;&#9;&#9;&#9;&#9;c-0.2,2.5-0.4,5-0.6,7.5c-126.4-9-253.5-7-379.8-18.8c0-3.9,0.1-7.9,0.3-11.8c1-17,4.3-33.4,9.5-48.9&#10;&#9;&#9;&#9;&#9;C159.1,1432.4,181.2,1434.2,203,1436.5z"/>
			<linearGradient id="XMLID_46_" gradientUnits="userSpaceOnUse" x1="-178.6838" y1="387.7971" x2="817.3162" y2="161.7971">
				<stop offset="0" style="stop-color:#FF7F8C;stop-opacity:0"/>
				<stop offset="0.398" style="stop-color:#FFB3C0"/>
				<stop offset="0.9694" style="stop-color:#FFCFB9"/>
			</linearGradient>
			<path id="XMLID_319_" opacity="0.43" fill="url(#XMLID_46_)" d="M-125.9,233.3l1109.7,33.2l-1096.4,90.4&#10;&#9;&#9;&#9;&#9;C-112.6,356.9-115.2,233.3-125.9,233.3z"/>
			
				<linearGradient id="XMLID_47_" gradientUnits="userSpaceOnUse" x1="1345.1721" y1="724.7131" x2="513.1721" y2="340.7132" gradientTransform="matrix(0.9965 8.319490e-002 -8.319490e-002 0.9965 44.7654 -329.6286)">
				<stop offset="0" style="stop-color:#FF7F8C;stop-opacity:0"/>
				<stop offset="0.398" style="stop-color:#FFB3C0"/>
				<stop offset="0.9694" style="stop-color:#FFCFB9"/>
			</linearGradient>
			<path id="XMLID_348_" fill="url(#XMLID_47_)" d="M1502.8,347.5c-7.8,5.2-816.8,52.6-816.8,52.6l833.8,57.2l-26-110.5"/>
		</g>
	</g>
</svg>