<svg width="50" height="50" viewBox="0 0 50 50" fill="none" xmlns="http://www.w3.org/2000/svg">
<path d="M46.1 7.40019L42.5 6.90019L40.9 3.6002C40.6 2.9002 39.4 2.9002 39.1 3.6002L37.5 6.90019L33.9 7.40019C33.5 7.50019 33.2 7.7002 33.1 8.1002C33 8.5002 33.1 8.9002 33.4 9.1002L36 11.7002L35.4 15.3002C35.3 15.7002 35.5 16.1002 35.8 16.3002C36.1 16.5002 36.5 16.6002 36.9 16.4002L40.1 14.7002L43.3 16.4002C43.4 16.5002 43.6 16.5002 43.8 16.5002C44 16.5002 44.2 16.4002 44.4 16.3002C44.7 16.1002 44.9 15.7002 44.8 15.3002L44.2 11.7002L46.8 9.1002C47.1 8.8002 47.2 8.4002 47.1 8.1002C46.8 7.7002 46.5 7.40019 46.1 7.40019ZM42.3 10.6002C42.1 10.8002 42 11.2002 42 11.5002L42.4 13.6002L40.5 12.6002C40.4 12.5002 40.2 12.5002 40 12.5002C39.8 12.5002 39.7 12.5002 39.5 12.6002L37.6 13.6002L38 11.5002C38.1 11.2002 37.9 10.8002 37.7 10.6002L36.2 9.1002L38.3 8.8002C38.6 8.8002 38.9 8.5002 39.1 8.3002L40.1 6.40019L41.1 8.3002C41.2 8.6002 41.5 8.8002 41.9 8.8002L44 9.1002L42.3 10.6002Z" fill="white"/>
<path d="M16.1 7.40019L12.5 6.90019L10.9 3.6002C10.6 2.9002 9.4 2.9002 9.1 3.6002L7.5 6.90019L3.9 7.40019C3.5 7.50019 3.2 7.7002 3.1 8.1002C3 8.5002 3.1 8.9002 3.4 9.1002L6 11.7002L5.4 15.3002C5.3 15.7002 5.5 16.1002 5.8 16.3002C6.1 16.5002 6.5 16.6002 6.9 16.4002L10.1 14.7002L13.3 16.4002C13.4 16.5002 13.6 16.5002 13.8 16.5002C14 16.5002 14.2 16.4002 14.4 16.3002C14.7 16.1002 14.9 15.7002 14.8 15.3002L14.2 11.7002L16.8 9.1002C17.1 8.8002 17.2 8.4002 17.1 8.1002C16.8 7.7002 16.5 7.40019 16.1 7.40019ZM12.3 10.6002C12.1 10.8002 12 11.2002 12 11.5002L12.4 13.6002L10.5 12.6002C10.4 12.5002 10.2 12.5002 10 12.5002C9.8 12.5002 9.7 12.5002 9.5 12.6002L7.6 13.6002L8 11.5002C8.1 11.2002 7.9 10.8002 7.7 10.6002L6.2 9.1002L8.3 8.8002C8.6 8.8002 8.9 8.5002 9.1 8.3002L10.1 6.40019L11.1 8.3002C11.2 8.6002 11.5 8.8002 11.9 8.8002L14 9.1002L12.3 10.6002Z" fill="white"/>
<path d="M45 0H5C2.2 0 0 2.2 0 5V14C0 16.8 2.2 19 5 19H12.6C9.2 22.3 7 26.9 7 32C7 33 7.1 34 7.3 35C7.4 35.5 7.8 35.8 8.3 35.8C8.4 35.8 8.4 35.8 8.5 35.8C9 35.7 9.4 35.2 9.3 34.7C9.1 33.8 9 32.9 9 32C9 23.2 16.2 16 25 16C26.2 16 27.3 16.1 28.5 16.4C32 17.2 35.2 19.1 37.5 22.1C37.8 22.5 38.5 22.6 38.9 22.3C39.3 22 39.4 21.3 39.1 20.9C38.6 20.3 38 19.7 37.5 19.1H45C47.8 19.1 50 16.9 50 14.1V5.1C50 2.2 47.8 0 45 0ZM27 11.5L27.4 13.6L25.5 12.6C25.4 12.5 25.2 12.5 25 12.5C24.8 12.5 24.7 12.5 24.5 12.6L22.6 13.6L23 11.5C23.1 11.2 22.9 10.8 22.7 10.6L21.2 9.1L23.3 8.8C23.6 8.8 23.9 8.5 24.1 8.3L25.1 6.4L26.1 8.3C26.2 8.6 26.5 8.8 26.9 8.8L29 9.1L27.5 10.6C27.1 10.8 27 11.1 27 11.5ZM48 14C48 15.7 46.7 17 45 17H35C33.4 15.9 31.5 15.1 29.6 14.6L29.1 11.6L31.7 9C32 8.7 32.1 8.3 32 8C31.9 7.6 31.6 7.4 31.2 7.3L27.6 6.8L26 3.5C25.7 2.8 24.5 2.8 24.2 3.5L22.6 6.8L19 7.3C18.6 7.4 18.3 7.6 18.2 8C18.1 8.4 18.2 8.8 18.5 9L21.1 11.6L20.6 14.6C18.7 15.1 16.9 15.9 15.2 17C15.2 17 15.2 17 15.1 17H5C3.3 17 2 15.7 2 14V5C2 3.3 3.3 2 5 2H45C46.7 2 48 3.3 48 5V14Z" fill="white"/>
<path d="M9.30003 38.6998C8.80003 38.9998 8.60003 39.5998 8.80003 39.9998C9.00003 40.2998 9.30003 40.5998 9.70003 40.5998C9.90003 40.5998 10 40.5998 10.1 40.4998C10.6 40.2998 10.8 39.6998 10.5 39.1998C10.4 38.5998 9.80003 38.3998 9.30003 38.6998Z" fill="white"/>
<path d="M40.7999 26.6999C40.8999 26.6999 41.1 26.6999 41.2 26.5999C41.5 26.4999 41.7 26.2999 41.7 26.0999C41.8 25.7999 41.8 25.5999 41.7 25.2999C41.5 24.7999 40.9 24.4999 40.4 24.7999C40.2 24.8999 40 25.0999 39.9 25.2999C39.8 25.4999 39.8 25.7999 39.9 26.0999C40 26.4999 40.3999 26.6999 40.7999 26.6999Z" fill="white"/>
<path d="M14 41V43.6C13.8 43.4 13.6 43.2 13.4 43C13 42.6 12.4 42.6 12 43C11.6 43.4 11.6 44 12 44.4C15.3 47.9 20.1 50 25 50C34.9 50 43 41.9 43 32C43 31.5 43 31 42.9 30.5C42.9 30 42.3999 29.5 41.7999 29.6C41.4999 29.6 41.2999 29.7 41.0999 30C40.8999 30.2 40.8 30.5 40.9 30.7C40.9 31.2 41 31.6 41 32C41 36.5 39.1 40.6 36 43.6V41C36 37 33.8 33.4 30.4 31.4C31.4 30.2 32 28.6 32 27C32 23.1 28.9 20 25 20C21.1 20 18 23.1 18 27C18 28.7 18.6 30.2 19.6 31.4C16.2 33.4 14 37 14 41ZM25 22C27.8 22 30 24.2 30 27C30 29.8 27.8 32 25 32C22.2 32 20 29.8 20 27C20 24.2 22.2 22 25 22ZM21.2 32.9C22.3 33.6 23.6 34 25 34C26.4 34 27.6999 33.6 28.7999 32.9C31.9999 34.3 34 37.5 34 41V45C34 45.1 34 45.1 34 45.2C31.4 47 28.3 48 25 48C21.7 48 18.6 47 16 45.2C16 45.1 16 45.1 16 45V41C16 37.5 18 34.3 21.2 32.9Z" fill="white"/>
</svg>
