<svg width="45" height="45" viewBox="0 0 45 45" fill="none" xmlns="http://www.w3.org/2000/svg">
<circle cx="22.1729" cy="22.1729" r="22.1729" fill="#EEEDED"/>
<path d="M22 20.1529C24.7992 20.1529 27.0764 17.8756 27.0764 15.0764C27.0765 12.2773 24.7992 10 22 10C19.2009 10 16.9236 12.2773 16.9236 15.0764C16.9236 17.8757 19.2009 20.1529 22 20.1529ZM22 11.2121C24.1309 11.2121 25.8643 12.9457 25.8643 15.0764C25.8643 17.2072 24.1308 18.9407 22 18.9407C19.8692 18.9407 18.1357 17.2072 18.1357 15.0764C18.1357 12.9457 19.8692 11.2121 22 11.2121Z" fill="black"/>
<path d="M30.4787 31.7557L28.814 24.8499C28.6164 24.0303 27.8897 23.4579 27.0464 23.4579C25.989 23.4579 17.8989 23.4579 16.9538 23.4579C16.1106 23.4579 15.3838 24.0303 15.1862 24.8499L13.5214 31.7557C13.2459 32.8989 14.1116 34 15.289 34H28.7112C29.8871 34 30.7547 32.9006 30.4787 31.7557ZM15.289 32.7879C14.8972 32.7879 14.6079 32.4213 14.6999 32.0398L16.3646 25.134C16.4304 24.8607 16.6727 24.67 16.9538 24.67H19.7131L18.9488 30.0767C18.9261 30.2367 18.9683 30.3991 19.0659 30.5277L20.7798 32.7879H15.289ZM20.1844 29.9965L20.9374 24.6701H23.0629L23.8159 29.9965L22.0001 32.3909L20.1844 29.9965ZM28.7112 32.7879H23.2204L24.9342 30.5278C25.0319 30.3991 25.074 30.2367 25.0514 30.0768L24.2871 24.6701H27.0463C27.3274 24.6701 27.5697 24.8609 27.6355 25.1341L29.3003 32.0399C29.3922 32.421 29.1035 32.7879 28.7112 32.7879Z" fill="black"/>
</svg>
