<svg width="36" height="37" viewBox="0 0 36 37" fill="none" xmlns="http://www.w3.org/2000/svg">
<path d="M23 1.50006L22.9112 1.47786C17.8706 0.217699 12.5324 1.13287 8.19934 4.00006V4.00006L5.79934 6.00006C2.39934 9.30006 0.199341 13.9001 0.199341 19.0001C0.199341 20.0001 0.299341 21.0001 0.499341 22.0001C0.599341 22.5001 0.999341 22.8001 1.49934 22.8001C1.59934 22.8001 1.59934 22.8001 1.69934 22.8001C2.19934 22.7001 2.59934 22.2001 2.49934 21.7001C2.29934 20.8001 2.19934 19.9001 2.19934 19.0001C2.19934 10.2001 9.39934 3.00006 18.1993 3.00006C19.3993 3.00006 20.4993 3.10006 21.6993 3.40006C25.1993 4.20006 28.3993 6.10006 30.6993 9.10006C30.9993 9.50006 31.6993 9.60006 32.0993 9.30006C32.4993 9.00006 32.5993 8.30006 32.2993 7.90006C31.7993 7.30006 31.1993 6.70006 30.6993 6.10006L28.1993 4.00006L27.1658 3.38924C26.1647 2.79758 25.1138 2.29436 24.0252 1.88531L23 1.50006Z" fill="white"/>
<path d="M2.30015 25.6998C1.80015 25.9998 1.60015 26.5998 1.80015 26.9998C2.00015 27.2998 2.30015 27.5998 2.70015 27.5998C2.90015 27.5998 3.00015 27.5998 3.10015 27.4998C3.60015 27.2998 3.80015 26.6998 3.50015 26.1998C3.40015 25.5998 2.80015 25.3998 2.30015 25.6998Z" fill="white"/>
<path d="M33.8001 13.6999C33.9001 13.6999 34.1001 13.6999 34.2001 13.5999C34.5001 13.4999 34.7001 13.2999 34.7001 13.0999C34.8001 12.7999 34.8001 12.5999 34.7001 12.2999C34.5001 11.7999 33.9001 11.4999 33.4001 11.7999C33.2001 11.8999 33.0001 12.0999 32.9001 12.2999C32.8001 12.4999 32.8001 12.7999 32.9001 13.0999C33.0001 13.4999 33.4001 13.6999 33.8001 13.6999Z" fill="white"/>
<path d="M7.00007 28V30.6C6.80007 30.4 6.60007 30.2 6.40007 30C6.00007 29.6 5.40007 29.6 5.00007 30C4.60007 30.4 4.60007 31 5.00007 31.4C8.30007 34.9 13.1001 37 18.0001 37C27.9001 37 36.0001 28.9 36.0001 19C36.0001 18.5 36.0001 18 35.9001 17.5C35.9001 17 35.4001 16.5 34.8001 16.6C34.5001 16.6 34.3001 16.7 34.1001 17C33.9001 17.2 33.8001 17.5 33.9001 17.7C33.9001 18.2 34.0001 18.6 34.0001 19C34.0001 23.5 32.1001 27.6 29.0001 30.6V28C29.0001 24 26.8001 20.4 23.4001 18.4C24.4001 17.2 25.0001 15.6 25.0001 14C25.0001 10.1 21.9001 7 18.0001 7C14.1001 7 11.0001 10.1 11.0001 14C11.0001 15.7 11.6001 17.2 12.6001 18.4C9.20007 20.4 7.00007 24 7.00007 28ZM18.0001 9C20.8001 9 23.0001 11.2 23.0001 14C23.0001 16.8 20.8001 19 18.0001 19C15.2001 19 13.0001 16.8 13.0001 14C13.0001 11.2 15.2001 9 18.0001 9ZM14.2001 19.9C15.3001 20.6 16.6001 21 18.0001 21C19.4001 21 20.7001 20.6 21.8001 19.9C25.0001 21.3 27.0001 24.5 27.0001 28V32C27.0001 32.1 27.0001 32.1 27.0001 32.2C24.4001 34 21.3001 35 18.0001 35C14.7001 35 11.6001 34 9.00007 32.2C9.00007 32.1 9.00007 32.1 9.00007 32V28C9.00007 24.5 11.0001 21.3 14.2001 19.9Z" fill="white"/>
</svg>
